<?xml version="1.0" standalone="no"?>
<!DOCTYPE svg PUBLIC "-//W3C//DTD SVG 1.1//EN" "http://www.w3.org/Graphics/SVG/1.1/DTD/svg11.dtd" >
<svg xmlns="http://www.w3.org/2000/svg">
<metadata>
This is a custom SVG webfont generated by Font Squirrel.
Copyright   : Chalet C 2000 House IndustriesBrand Design Co Inc House Industries is a registered trademark of House Industries Brand Design Co Inc 
Foundry     : Chalet C House IndustriesBrand Design Co Inc
</metadata>
<defs>
<font id="ChaletMedium" horiz-adv-x="1282" >
<font-face units-per-em="2048" ascent="1638" descent="-410" />
<missing-glyph horiz-adv-x="630" />
<glyph unicode=" "  horiz-adv-x="630" />
<glyph unicode="&#x09;" horiz-adv-x="630" />
<glyph unicode="&#xa0;" horiz-adv-x="630" />
<glyph unicode="!" horiz-adv-x="587" d="M160 0v268h270v-268h-270zM160 424v997h270v-997h-270z" />
<glyph unicode="&#x22;" horiz-adv-x="763" d="M68 1421h264l-47 -587h-172zM434 1421h262l-45 -587h-174z" />
<glyph unicode="#" horiz-adv-x="1101" d="M18 336l29 196h174l51 353h-174l29 194h176l37 267h203l-37 -267h201l36 267h205l-39 -267h174l-28 -194h-174l-52 -353h175l-29 -196h-176l-37 -260h-203l39 260h-203l-37 -260h-202l39 260h-177zM426 532h199l53 353h-201z" />
<glyph unicode="$" horiz-adv-x="1009" d="M57 508h234q0 -80 40 -126t99 -63v312q-57 12 -119.5 34.5t-115 61.5t-86 97.5t-33.5 144.5q0 145 94 243.5t260 114.5v119h133v-119q164 -20 257 -124.5t93 -264.5h-235q0 59 -30 103t-85 61v-275q74 -18 142.5 -42.5t121 -64.5t84 -100.5t31.5 -148.5 q0 -158 -99.5 -258t-279.5 -119v-119h-133v121q-76 8 -143.5 40t-118.5 83t-81 124t-30 165zM311 975q0 -41 28 -66.5t91 -48.5v244q-55 -12 -87 -45t-32 -84zM563 315q59 10 102.5 44t43.5 96q0 25 -5.5 45t-20.5 38.5t-44 34t-76 29.5v-287z" />
<glyph unicode="%" horiz-adv-x="1669" d="M61 1063q0 74 28 139.5t76 114.5t113.5 76.5t141.5 27.5t142.5 -27.5t113.5 -76.5t74.5 -114.5t27.5 -139.5t-27.5 -138.5t-74.5 -113.5t-113.5 -76.5t-142.5 -27.5t-141.5 27.5t-113.5 76.5t-76 113.5t-28 138.5zM266 1063q0 -68 45 -116t109 -48q66 0 110.5 48 t44.5 116t-45 116t-110 48q-63 0 -108.5 -48t-45.5 -116zM334 0l780 1421h219l-780 -1421h-219zM889 358q0 74 27.5 139.5t74.5 113.5t112.5 77t143.5 29q76 0 141.5 -29t113.5 -77t76 -113.5t28 -139.5t-28 -139t-76 -114.5t-113.5 -77t-141.5 -27.5q-78 0 -143.5 27.5 t-112.5 77t-74.5 114.5t-27.5 139zM1092 358q0 -68 45 -115.5t110 -47.5q63 0 109.5 48t46.5 115q0 68 -46 116t-110 48q-66 0 -110.5 -48t-44.5 -116z" />
<glyph unicode="&#x26;" horiz-adv-x="1331" d="M68 487q0 121 57 226.5t168 187.5q-25 41 -43.5 90t-18.5 107q0 76 28 141.5t77 114.5t117.5 76.5t150.5 27.5t147.5 -26.5t112.5 -74.5t73 -114.5t26 -144.5v-29h-248v31q0 43 -26.5 82t-88.5 39q-59 0 -89 -39t-30 -80q0 -39 16.5 -70t43.5 -63l407 -518 q18 55 22.5 121.5t-1.5 144.5h239q10 -145 -11 -264t-81 -213l189 -240h-308l-53 68q-70 -45 -151.5 -69t-176.5 -24q-115 0 -214 40t-173.5 110t-117.5 163t-43 199zM322 487q0 -55 23.5 -104t63.5 -87t93 -59.5t114 -21.5q49 0 93.5 12.5t83.5 34.5l-353 445 q-47 -37 -82.5 -92.5t-35.5 -127.5z" />
<glyph unicode="'" horiz-adv-x="399" d="M68 1421h262l-45 -587h-174z" />
<glyph unicode="(" horiz-adv-x="665" d="M82 690q0 131 25.5 263t71.5 253t111.5 226.5t143.5 185.5h215q-145 -190 -228 -427t-83 -501t83 -500.5t228 -427.5h-215q-78 80 -143.5 185.5t-111.5 226.5t-71.5 252t-25.5 264z" />
<glyph unicode=")" horiz-adv-x="665" d="M18 -238q145 190 227.5 427t82.5 501t-82 500.5t-228 427.5h213q78 -80 143.5 -185.5t111.5 -226.5t72 -253t26 -263q0 -133 -26 -264t-72 -252t-111.5 -226.5t-143.5 -185.5h-213z" />
<glyph unicode="*" horiz-adv-x="800" d="M55 1038v158l215 -6l-112 188l137 78l104 -192l105 192l137 -78l-113 -188l217 6v-158l-217 4l113 -184l-137 -80l-105 191l-104 -191l-135 80l110 184z" />
<glyph unicode="+" horiz-adv-x="1073" d="M76 440v252h325v334h271v-334h325v-252h-325v-336h-271v336h-325z" />
<glyph unicode="," horiz-adv-x="479" d="M94 0v289h291v-324q0 -139 -73.5 -214t-190.5 -87v127q63 14 95 59.5t32 112.5v37h-154z" />
<glyph unicode="-" horiz-adv-x="677" d="M61 442v252h555v-252h-555z" />
<glyph unicode="." horiz-adv-x="479" d="M94 0v289h291v-289h-291z" />
<glyph unicode="/" horiz-adv-x="690" d="M4 0l432 1524h281l-432 -1524h-281z" />
<glyph unicode="0" horiz-adv-x="1533" d="M72 717q0 154 52 289t144 235t220 157.5t280 57.5q150 0 278 -57.5t220 -157.5t144 -235.5t52 -288.5q0 -156 -52 -291t-144 -235.5t-220 -158t-278 -57.5q-152 0 -280 57.5t-220 158t-144 235.5t-52 291zM344 717q0 -100 33 -188.5t90 -155t135 -104.5t166 -38t165 38 t134 104.5t90 154.5t33 189q0 98 -33 186t-90 154.5t-134 104.5t-165 38t-166 -38t-135 -104.5t-90 -154.5t-33 -186z" />
<glyph unicode="1" horiz-adv-x="790" d="M78 1169v252h434v-1421h-270v1169h-164z" />
<glyph unicode="2" horiz-adv-x="1107" d="M20 0l539 631q61 74 99 125t57.5 91t27 75.5t7.5 78.5q0 27 -11.5 60t-36 60.5t-63.5 46t-96 18.5t-98.5 -19.5t-69 -51.5t-40.5 -75t-13 -88h-271q0 113 38 205t104.5 158.5t155.5 103.5t194 37q104 0 191 -36t150.5 -97t99.5 -144t36 -178q0 -78 -15.5 -141t-47 -124.5 t-83 -126t-120.5 -142.5l-193 -215h451v-252h-992z" />
<glyph unicode="3" horiz-adv-x="1171" d="M31 397h276q23 -70 90.5 -111.5t173.5 -41.5q119 0 189.5 69.5t70.5 186.5q0 119 -69.5 185.5t-196.5 76.5q-66 4 -128 0t-122 -12l279 419h-471v252h956l-340 -473q166 -31 264.5 -145.5t98.5 -302.5q0 -115 -40 -211t-110.5 -167t-168 -110t-212.5 -39t-210 35 t-164.5 93.5t-111.5 135t-54 160.5z" />
<glyph unicode="4" horiz-adv-x="1116" d="M31 291v237l557 893h315v-893h152v-237h-152v-291h-252v291h-620zM299 528h352v564z" />
<glyph unicode="5" horiz-adv-x="1189" d="M55 395h275q23 -78 93.5 -124t170.5 -46q119 0 189.5 76t70.5 199q0 68 -22.5 119t-59.5 84.5t-83 51t-95 17.5q-70 0 -135.5 -32.5t-108.5 -96.5h-268l176 778h762v-252h-557l-51 -200q55 29 109 41t106 12q100 0 190 -39t158.5 -107.5t109.5 -165t41 -210.5 q0 -115 -39.5 -211t-110.5 -167t-169 -110t-213 -39q-125 0 -234.5 44t-185.5 124q-101 107 -119 254z" />
<glyph unicode="6" horiz-adv-x="1159" d="M68 492q0 90 33.5 180t86.5 182l312 567h309l-238 -430q117 6 214.5 -31.5t167 -107.5t108.5 -163t39 -197q0 -106 -40 -200.5t-108.5 -164.5t-164 -111t-205.5 -41q-111 0 -204 41t-163 111t-108.5 164.5t-38.5 200.5zM336 492q0 -53 19.5 -98.5t53 -80t77.5 -54 t96 -19.5q51 0 96 19.5t79 54t53 79.5t19 99q0 53 -19 99t-53 81t-79 54t-96 19t-95.5 -19t-78 -54t-53 -81t-19.5 -99z" />
<glyph unicode="7" horiz-adv-x="1071" d="M35 1169v252h1020l-649 -1421h-287l536 1169h-620z" />
<glyph unicode="8" horiz-adv-x="1122" d="M59 477q0 131 61.5 232.5t164.5 160.5q-47 41 -74 99.5t-27 130.5q0 68 29 132t80 114.5t119.5 80t148.5 29.5t148.5 -29.5t120 -80t80 -115t28.5 -131.5q0 -72 -27.5 -130.5t-74.5 -99.5q104 -59 165.5 -160.5t61.5 -232.5q0 -104 -39 -195.5t-106.5 -159t-158.5 -107.5 t-198 -40q-106 0 -198.5 40t-160 107.5t-105.5 159t-38 195.5zM330 477q0 -51 18.5 -95t50 -77t73.5 -52.5t89 -19.5t89 19.5t73 52.5t49.5 77t18.5 95q0 49 -18.5 93t-49.5 77t-73 52.5t-89 19.5t-89 -19.5t-73.5 -52.5t-50 -77t-18.5 -93zM438 1085q0 -53 36 -90t87 -37 t87 37t36 90t-36 89t-87 36t-87 -36t-36 -89z" />
<glyph unicode="9" horiz-adv-x="1157" d="M57 938q0 106 40 200.5t108.5 164t164 110.5t205.5 41q111 0 204 -41t163 -110.5t109 -164t39 -200.5q0 -86 -31 -172t-84 -180l-322 -586h-309l242 438q-117 -6 -214.5 32t-167 107.5t-108.5 163t-39 197.5zM328 938q0 -53 19.5 -99t53 -81t78.5 -54.5t96 -19.5 t95.5 19.5t78 54.5t53 81t19.5 99q0 51 -19.5 98t-53 81t-77.5 54.5t-96 20.5q-51 0 -96 -20.5t-78.5 -54.5t-53 -81t-19.5 -98z" />
<glyph unicode=":" horiz-adv-x="501" d="M106 0v289h291v-289h-291zM106 729v289h291v-289h-291z" />
<glyph unicode=";" horiz-adv-x="501" d="M106 0v289h291v-324q0 -139 -73.5 -214t-190.5 -87v127q63 14 94 59.5t31 112.5v37h-152zM106 729v289h291v-289h-291z" />
<glyph unicode="&#x37e;" horiz-adv-x="501" d="M106 0v289h291v-324q0 -139 -73.5 -214t-190.5 -87v127q63 14 94 59.5t31 112.5v37h-152zM106 729v289h291v-289h-291z" />
<glyph unicode="&#x3c;" horiz-adv-x="919" d="M63 430v268l793 367v-279l-526 -221l526 -223v-276z" />
<glyph unicode="=" horiz-adv-x="1034" d="M76 211v250h882v-250h-882zM76 670v252h882v-252h-882z" />
<glyph unicode="&#x3e;" horiz-adv-x="921" d="M63 66v276l527 223l-527 221v279l795 -367v-268z" />
<glyph unicode="?" horiz-adv-x="1130" d="M68 991q0 102 33.5 187.5t98 146.5t154.5 95t205 34q113 0 202 -30.5t150.5 -86t93 -132.5t31.5 -167q0 -63 -18.5 -114.5t-51 -94.5t-75.5 -79.5t-94 -69.5q-72 -47 -101.5 -95t-29.5 -114v-47h-248v47q0 80 19.5 139.5t52 104.5t71.5 77.5t80 61.5q70 49 98.5 90 t28.5 94q0 74 -55.5 121t-153.5 47q-111 0 -167 -61.5t-56 -153.5h-268zM406 0v268h270v-268h-270z" />
<glyph unicode="@" horiz-adv-x="1525" d="M63 713q0 158 57.5 293t156 235t231.5 156.5t285 56.5q125 0 245.5 -38t215 -113.5t151.5 -190.5t57 -270q0 -100 -30.5 -189.5t-85 -156t-127 -105.5t-154.5 -39q-72 0 -125 31t-82 80q-43 -55 -97 -85t-114 -30q-63 0 -113.5 30t-80 84t-34.5 128t19 160 q20 70 58.5 129t85.5 103t102 68.5t109 24.5q49 0 88 -22.5t61 -63.5l16 53h185q-10 -29 -30.5 -94t-41.5 -133q-25 -80 -51 -170q-16 -53 2 -79.5t51 -26.5q39 0 73 24.5t59.5 66.5t40 95t14.5 111q0 113 -41 195.5t-108 135t-149.5 78t-168.5 25.5q-109 0 -205 -44 t-168 -120t-113 -177.5t-41 -215.5q0 -119 42 -220.5t116 -175t174 -115.5t217 -42q127 0 231.5 43t170.5 110h243q-104 -166 -263 -253t-382 -87q-158 0 -295 55.5t-238.5 155t-160 234.5t-58.5 295zM623.5 593q15.5 -50 62.5 -50t95 50t71 122t7.5 122t-62.5 50 q-45 0 -93.5 -48t-72.5 -124q-23 -72 -7.5 -122z" />
<glyph unicode="A" d="M127 0v942q0 111 37 205t106 164q72 72 166 108.5t205 36.5t206 -37t167 -108q70 -70 106.5 -164t36.5 -205v-942h-270v397h-490v-397h-270zM397 657h490v291q0 115 -64.5 179.5t-181.5 64.5q-115 0 -179.5 -64.5t-64.5 -179.5v-291z" />
<glyph unicode="B" horiz-adv-x="1187" d="M127 0v997q0 92 34 176t99 148q66 66 152 100.5t182 34.5q100 0 186 -30.5t148.5 -86t97.5 -133.5t35 -170t-35 -160.5t-90 -115.5q92 -47 141 -133t49 -209q0 -96 -30.5 -173t-88 -131.5t-140.5 -84t-185 -29.5h-555zM397 252h244q39 0 77 8t66.5 28.5t46 54.5t17.5 87 q0 90 -54.5 137t-156.5 47h-240v-362zM397 866h226q6 0 32.5 3t56 18.5t53 47.5t23.5 89q0 45 -16 77t-43 52.5t-61.5 29.5t-73.5 9q-86 0 -141.5 -56.5t-55.5 -138.5v-131z" />
<glyph unicode="C" horiz-adv-x="1449" d="M68 717q0 156 53 291t145 235t218 157.5t272 57.5q121 0 224 -32.5t186 -94t143.5 -149.5t93.5 -197h-293q-47 98 -139 161.5t-215 63.5q-88 0 -164 -38.5t-132.5 -106.5t-89 -158t-32.5 -190q0 -102 32.5 -192.5t89 -158t132.5 -106.5t164 -39q123 0 215 65.5t139 164.5 h291q-35 -109 -95.5 -197t-143.5 -149.5t-185.5 -95.5t-220.5 -34q-145 0 -271.5 57.5t-218.5 158t-145 235.5t-53 291z" />
<glyph unicode="D" horiz-adv-x="1366" d="M131 0v1421h526q147 0 266 -49t202 -141t128 -224.5t45 -295.5q0 -164 -45 -295t-129 -223.5t-202.5 -142.5t-264.5 -50h-526zM401 252h256q121 0 194 48t113 117.5t52 149.5t12 146q0 78 -15.5 158.5t-56.5 147t-112.5 108.5t-186.5 42h-256v-917z" />
<glyph unicode="E" horiz-adv-x="1157" d="M127 453v516q0 102 28.5 185t86 142.5t140.5 92t193 32.5h502v-266h-499q-98 0 -139.5 -41t-41.5 -139v-137h576v-252h-576v-137q0 -98 41 -140.5t140 -42.5h499v-266h-502q-111 0 -193.5 33t-140 92t-86 142.5t-28.5 185.5z" />
<glyph unicode="F" horiz-adv-x="1060" d="M127 0v969q0 205 113.5 328.5t332.5 123.5h435v-266h-433q-98 0 -138 -41t-40 -139v-141h504v-252h-504v-582h-270z" />
<glyph unicode="G" horiz-adv-x="1513" d="M68 717q0 156 53 291t146 235t219 157.5t272 57.5q119 0 221 -32.5t185 -94t143.5 -148.5t95.5 -198h-291q-51 100 -141 162.5t-213 62.5q-88 0 -165 -38.5t-133.5 -106.5t-89 -158t-32.5 -190q0 -102 32.5 -192.5t89 -158t133.5 -106.5t165 -39q76 0 140.5 25.5 t115.5 68.5t85 100.5t48 123.5h-352v252h649q1 -21 1 -42q0 -164 -44 -297q-49 -151 -141.5 -256.5t-221.5 -163t-280 -57.5q-145 0 -271.5 57.5t-219.5 158t-146 235.5t-53 291z" />
<glyph unicode="H" horiz-adv-x="1310" d="M131 0v1421h272v-569h506v569h271v-1421h-271v600h-506v-600h-272z" />
<glyph unicode="I" horiz-adv-x="542" d="M137 0v1421h271v-1421h-271z" />
<glyph unicode="J" horiz-adv-x="878" d="M35 0v266h268q96 0 137 44t41 143v968h271v-972q0 -205 -114 -327t-333 -122h-270z" />
<glyph unicode="K" horiz-adv-x="1290" d="M131 0v1421h272v-583h304q96 0 140 44t44 138v401h270v-409q0 -213 -149 -301q72 -43 110.5 -117t38.5 -184v-410h-270v403q0 94 -44 138.5t-140 44.5h-304v-586h-272z" />
<glyph unicode="L" horiz-adv-x="1038" d="M127 449v972h270v-968q0 -98 40 -142.5t138 -44.5h429v-266h-431q-219 0 -332.5 122t-113.5 327z" />
<glyph unicode="M" horiz-adv-x="2039" d="M127 0v944q0 106 38 199.5t105.5 163t161.5 109.5t209 40q119 0 216 -49t163 -135q66 86 164 135t215 49q115 0 210 -40t162.5 -109.5t105.5 -162.5t38 -200v-944h-270v948q0 51 -17.5 95t-50.5 77t-78 52.5t-100 19.5t-100.5 -19.5t-77 -52.5t-48 -77t-16.5 -95v-948 h-272v948q0 51 -17.5 95t-49.5 77t-77 52.5t-100 19.5t-101 -19.5t-78 -52.5t-49.5 -77t-17.5 -95v-948h-268z" />
<glyph unicode="N" d="M127 0v942q0 111 37 205t106 164q72 72 166 108.5t205 36.5t206 -37t167 -108q70 -70 106.5 -164t36.5 -205v-942h-270v948q0 115 -64.5 179.5t-181.5 64.5q-115 0 -179.5 -64.5t-64.5 -179.5v-948h-270z" />
<glyph unicode="O" horiz-adv-x="1525" d="M68 717q0 154 52 289t144 235t220 157.5t280 57.5q150 0 277.5 -57.5t220 -157.5t144.5 -235.5t52 -288.5q0 -156 -52 -291t-144.5 -235.5t-220.5 -158t-277 -57.5q-152 0 -280 57.5t-220 158t-144 235.5t-52 291zM340 717q0 -100 33 -188.5t90 -155t135 -104.5t166 -38 t165 38t134 104.5t90 154.5t33 189q0 98 -33 186t-90 154.5t-134 104.5t-165 38t-166 -38t-135 -104.5t-90 -154.5t-33 -186z" />
<glyph unicode="P" horiz-adv-x="1236" d="M127 0v936q0 106 41 201.5t111.5 166t167 111.5t208.5 41q113 0 210.5 -41t168 -111.5t111.5 -166t41 -201.5q0 -111 -42 -207t-112.5 -165.5t-163 -109.5t-192.5 -40h-279v-414h-270zM397 662h258q53 0 100.5 21.5t83 57t56 84.5t20.5 105q0 55 -20.5 104t-56 86 t-82.5 58.5t-101 21.5q-53 0 -100 -21.5t-82 -58.5t-55.5 -86t-20.5 -104v-268z" />
<glyph unicode="Q" horiz-adv-x="1523" d="M68 717q0 154 52 289t144 235t219 157.5t279 57.5q150 0 277.5 -57.5t220 -157.5t144.5 -235.5t52 -288.5q0 -139 -41 -261t-115.5 -218.5t-179 -162t-229.5 -87.5v-228h-258v228q-125 23 -229.5 88t-179 161.5t-115.5 218.5t-41 261zM338 717q0 -80 21.5 -155t60.5 -136 t93 -107.5t120 -68.5v196h258v-196q66 23 120 69t93 107t60.5 136t21.5 155q0 98 -34 186t-91 154.5t-134 104.5t-165 38t-165 -38t-134 -104.5t-91 -154.5t-34 -186z" />
<glyph unicode="R" horiz-adv-x="1236" d="M127 0v952q0 102 35 193.5t100 161.5q70 72 163 110.5t202 38.5q106 0 197 -37t159 -99.5t106.5 -145t38.5 -177.5q0 -113 -39.5 -195.5t-107.5 -137.5q57 -35 89 -92.5t32 -141.5v-430h-271v418q0 41 -24.5 67.5t-69.5 26.5h-338v-512h-272zM399 760h234q109 0 166 59.5 t57 159.5q0 92 -62.5 154.5t-162.5 62.5q-57 0 -100.5 -19.5t-73 -53t-44 -78t-14.5 -93.5v-192z" />
<glyph unicode="S" horiz-adv-x="1064" d="M16 0v256q72 0 149 16.5t130 61.5q25 20 46 50t35.5 74t23 105.5t8.5 147.5q0 205 50 342t160 233q78 70 187.5 102.5t245.5 34.5v-258q-84 0 -150.5 -20.5t-105.5 -54.5q-27 -25 -48.5 -55.5t-37 -75t-23.5 -105.5t-8 -143q0 -74 -7 -153t-28.5 -153.5t-64.5 -145.5 t-113 -128q-84 -70 -196 -101q-105 -30 -236 -30h-17z" />
<glyph unicode="T" horiz-adv-x="1097" d="M33 1169v252h1032v-252h-381v-1169h-270v1169h-381z" />
<glyph unicode="U" d="M127 489v932h270v-936q0 -117 64.5 -181t179.5 -64q117 0 181.5 64.5t64.5 180.5v936h270v-932q0 -111 -37 -205t-106 -165q-72 -70 -167 -107t-206 -37t-205 37t-166 107q-70 72 -106.5 165.5t-36.5 204.5z" />
<glyph unicode="V" horiz-adv-x="1236" d="M6 1421h287l325 -1095l324 1095h287l-465 -1421h-291z" />
<glyph unicode="W" horiz-adv-x="2039" d="M127 487v934h268v-936q0 -51 17.5 -95t49.5 -77.5t78 -53t101 -19.5t100 19.5t77 53t49.5 77.5t17.5 95v936h272v-936q0 -51 17.5 -95t49 -77.5t75.5 -53t100 -19.5q55 0 100 19.5t78 53t50.5 77.5t17.5 95v936h270v-934q0 -106 -38 -199t-105.5 -163t-163 -110 t-209.5 -40q-117 0 -215.5 49.5t-163.5 135.5q-66 -86 -163 -135.5t-216 -49.5q-115 0 -209 40t-161.5 110t-105.5 163t-38 199z" />
<glyph unicode="X" horiz-adv-x="1286" d="M129 0v365q0 129 44 217t122 141q-78 53 -122 141t-44 217v340h270v-329q0 -115 63.5 -179.5t180.5 -64.5t180.5 64.5t63.5 179.5v329h270v-340q0 -129 -43 -217t-121 -141q78 -53 121 -141t43 -217v-365h-270v352q0 115 -63.5 179.5t-180.5 64.5t-180.5 -64.5 t-63.5 -179.5v-352h-270z" />
<glyph unicode="Y" horiz-adv-x="1255" d="M113 1028v393h272v-399q0 -117 63.5 -180.5t180.5 -63.5q115 0 179 63.5t64 180.5v399h271v-393q0 -111 -37 -206t-107 -165q-98 -98 -235 -129v-528h-272v528q-137 31 -236 129q-70 70 -106.5 165t-36.5 206z" />
<glyph unicode="Z" horiz-adv-x="1126" d="M51 0v242l688 927h-665v252h983v-239l-688 -930h704v-252h-1022z" />
<glyph unicode="[" horiz-adv-x="649" d="M131 -248v1925h492v-221h-250v-1483h250v-221h-492z" />
<glyph unicode="\" horiz-adv-x="692" d="M-27 1524h283l430 -1524h-280z" />
<glyph unicode="]" horiz-adv-x="690" d="M47 -27h260v1483h-260v221h512v-1925h-512v221z" />
<glyph unicode="^" horiz-adv-x="1134" d="M68 528l366 893h266l367 -893h-270l-230 625l-229 -625h-270z" />
<glyph unicode="_" horiz-adv-x="1650" d="M-4 -143h1659v-252h-1659v252z" />
<glyph unicode="`" horiz-adv-x="854" d="M152 1481h301l190 -289h-199z" />
<glyph unicode="a" horiz-adv-x="1259" d="M61 526q0 115 40 216.5t112 176t171 118.5t220 44q119 0 218.5 -44t171 -118.5t111.5 -176t40 -216.5v-526h-256v111q-59 -66 -142 -100t-180 -34q-104 0 -196 43t-161 118t-109 174t-40 214zM334 524q0 -63 21.5 -117.5t58.5 -94.5t86 -62.5t104 -22.5t104.5 23.5 t86 63.5t58 94.5t21.5 115.5q0 63 -21.5 118.5t-58 96.5t-86 64.5t-104.5 23.5t-104 -22.5t-86 -63.5t-58.5 -96t-21.5 -121z" />
<glyph unicode="b" horiz-adv-x="1241" d="M96 526v998h273v-570q59 63 137 93t170 30q104 0 196.5 -43t160 -118.5t107.5 -176t40 -213.5q0 -115 -40 -215t-112 -175t-171 -118t-218 -43q-121 0 -220.5 43t-171 118t-111.5 175t-40 215zM369 524q0 -61 21.5 -115.5t58 -94.5t86 -63.5t104.5 -23.5t104.5 22.5 t86 62.5t58 94.5t21.5 117.5q0 66 -21.5 121t-58 96t-86 63.5t-104.5 22.5t-104.5 -23.5t-86 -64.5t-58 -96.5t-21.5 -118.5z" />
<glyph unicode="c" horiz-adv-x="1169" d="M61 526q0 115 41 216.5t113 176t172 118.5t219 44q193 0 327 -100t181 -281h-289q-29 53 -87 93.5t-132 40.5q-55 0 -104 -25t-86 -67t-58.5 -98t-21.5 -120q0 -61 21.5 -116.5t58.5 -97.5t86 -65.5t104 -23.5q76 0 135.5 40t85.5 95h289q-47 -180 -182 -280.5 t-328 -100.5q-119 0 -219 43t-172 118t-113 175t-41 215z" />
<glyph unicode="d" horiz-adv-x="1239" d="M61 526q0 113 40 213.5t109 176t160 118.5t195 43q188 0 309 -123v570h271v-998q0 -115 -40 -215t-111.5 -175t-171 -118t-218.5 -43q-121 0 -220 43t-171 118t-112 175t-40 215zM334 524q0 -63 21.5 -117.5t58.5 -94.5t86 -62.5t104 -22.5t104.5 23.5t86 63.5t58 94.5 t21.5 115.5q0 63 -21.5 118.5t-58 96.5t-86 64.5t-104.5 23.5t-104 -22.5t-86 -63.5t-58.5 -96t-21.5 -121z" />
<glyph unicode="e" horiz-adv-x="1185" d="M61 526q0 115 42 216.5t116 176t172 118.5t211 44q94 0 180 -29.5t155 -86t117 -138.5t66 -188l-745 -313q41 -53 98 -83t127 -30q66 0 127 29.5t96 93.5h289q-47 -162 -179 -261.5t-331 -99.5q-113 0 -211 43t-172 118t-116 175t-42 215zM313 541l496 209 q-37 45 -90 69.5t-119 24.5q-59 0 -110.5 -22.5t-89.5 -62.5t-61.5 -95t-25.5 -123z" />
<glyph unicode="f" horiz-adv-x="638" d="M115 -2v1040q0 104 30.5 193.5t91 152t147.5 92.5q62 21 137 21q31 0 65 -4v-254q-16 1 -30 1q-76 0 -119 -36q-50 -43 -52 -153h190v-240h-190v-813h-270z" />
<glyph unicode="g" horiz-adv-x="1253" d="M61 526q0 115 40 216.5t112 176t171 118.5t220 44q119 0 218.5 -44t171 -118.5t111.5 -176t40 -216.5v-473q0 -131 -38 -236.5t-108.5 -179t-172 -113.5t-228.5 -40q-96 0 -182 26.5t-153.5 74.5t-115 116t-61.5 152h295q12 -31 37.5 -53.5t56.5 -37t62.5 -20.5t60.5 -6 q143 0 209.5 86t66.5 227v47q-59 -59 -138 -89t-169 -30q-104 0 -196 43t-161 118t-109 174t-40 214zM334 524q0 -63 21.5 -117.5t58.5 -94.5t86 -62.5t104 -22.5t104.5 23.5t86 63.5t58 94.5t21.5 115.5q0 63 -21.5 118.5t-58 96.5t-86 64.5t-104.5 23.5t-104 -22.5 t-86 -63.5t-58.5 -96t-21.5 -121z" />
<glyph unicode="h" horiz-adv-x="1181" d="M123 0v1524h272v-525q51 39 111.5 60.5t130.5 21.5q96 0 176 -33.5t136.5 -94t87 -146.5t30.5 -191v-616h-270v616q0 23 -6.5 58t-27 66.5t-59 54t-104.5 22.5q-92 0 -148.5 -55t-56.5 -146v-616h-272z" />
<glyph unicode="i" horiz-adv-x="530" d="M129 1169v152q0 57 40 96t97 39q55 0 95 -39t40 -96v-152h-272zM131 0v1055h270v-1055h-270z" />
<glyph unicode="j" horiz-adv-x="489" d="M-51 -225q19 -2 35 -2q56 0 88 21q41 28 41 108v1153h270v-1184q0 -104 -30.5 -175t-87 -111t-136.5 -52q-37 -6 -78 -6q-48 0 -102 8v240zM113 1169v152q0 57 38.5 96t94.5 39q57 0 97 -39t40 -96v-152h-270z" />
<glyph unicode="k" horiz-adv-x="1153" d="M123 0v1524h272v-867h150q61 0 104 19.5t71 51.5t40 74t12 85v168h272v-215q0 -104 -46 -186.5t-134 -125.5q88 -45 134 -127t46 -186v-215h-272v170q0 43 -12 84t-40 72.5t-71 51t-104 19.5h-150v-397h-272z" />
<glyph unicode="l" horiz-adv-x="600" d="M106 442v1082h273v-1082q0 -113 50 -156q44 -39 127 -39q12 0 24 1v-246q-37 -4 -71 -4q-74 0 -134 18q-88 27 -147.5 85.5t-90.5 145t-31 195.5z" />
<glyph unicode="m" horiz-adv-x="1845" d="M115 0v610q0 100 33.5 186.5t95 150t149.5 99t197 35.5t193.5 -40t142.5 -109q59 70 145 109.5t191 39.5q111 0 197.5 -34.5t147 -97t92.5 -148.5t32 -191v-610h-271v616q0 23 -6 57t-26.5 66.5t-59.5 55t-106 22.5q-90 0 -147.5 -55t-57.5 -146v-616h-271v616 q0 23 -6 57t-25.5 66.5t-58.5 55t-106 22.5q-92 0 -148.5 -55t-56.5 -146v-616h-270z" />
<glyph unicode="n" horiz-adv-x="1173" d="M115 0v610q0 100 33.5 186.5t96 150t149.5 99t196 35.5q111 0 197.5 -34.5t147 -97t92.5 -148.5t32 -191v-610h-271v616q0 23 -6 57t-26.5 66.5t-59.5 55t-106 22.5q-90 0 -147.5 -55t-57.5 -146v-616h-270z" />
<glyph unicode="o" horiz-adv-x="1185" d="M61 526q0 119 42 220.5t114 176t168 116.5t207 42t207 -42t168.5 -116.5t114.5 -176t42 -220.5t-42 -219t-114.5 -174t-169 -116t-206.5 -42q-111 0 -207 42t-168 116t-114 174t-42 219zM332 524q0 -68 20.5 -123t55 -95t83 -61.5t101.5 -21.5t100 21.5t83 61.5 t56.5 95.5t20.5 122.5q0 68 -20.5 125.5t-56.5 98t-83 63.5t-100 23t-101.5 -23t-83 -63.5t-55 -98t-20.5 -125.5z" />
<glyph unicode="p" horiz-adv-x="1241" d="M96 -469v999q0 113 40 213.5t111.5 176t171 118.5t220.5 43q119 0 218 -43t171 -118.5t112 -176t40 -213.5q0 -115 -40 -215t-107.5 -176t-160 -119t-196.5 -43q-188 0 -307 123v-569h-273zM369 530q0 -63 21.5 -118.5t58 -96.5t86 -64.5t104.5 -23.5t104.5 23.5t86 63.5 t58 95.5t21.5 120.5q0 63 -21.5 117.5t-58 94.5t-86 62.5t-104.5 22.5t-104.5 -23.5t-86 -63.5t-58 -94.5t-21.5 -115.5z" />
<glyph unicode="q" horiz-adv-x="1239" d="M61 530q0 113 40 213.5t112 176t171 118.5t220 43q119 0 218.5 -43t171 -118.5t111.5 -176t40 -213.5v-999h-271v569q-123 -123 -309 -123q-104 0 -195 43t-160 119t-109 176t-40 215zM334 530q0 -66 21.5 -121t58.5 -95t86 -63.5t104 -23.5t104.5 23.5t86 64.5t58 96.5 t21.5 118.5q0 61 -21.5 115.5t-58 94.5t-86 63.5t-104.5 23.5t-104 -22.5t-86 -62.5t-58.5 -94.5t-21.5 -117.5z" />
<glyph unicode="r" horiz-adv-x="704" d="M115 0v610q0 113 37.5 205t109.5 155.5t175 92.5q66 18 143 18q44 0 92 -6v-254q-35 6 -67 6q-84 0 -141 -44q-79 -60 -79 -173v-610h-270z" />
<glyph unicode="s" horiz-adv-x="759" d="M20 0v262q19 -1 38 -1q32 0 60 4q44 7 72 36q20 18 37 65.5t17 161.5q0 51 4 106.5t18.5 110t41 105.5t73.5 94q113 111 300 111q27 0 56 -2v-262q-20 2 -38 2q-85 0 -132 -48q-10 -10 -19 -23t-16.5 -38t-12.5 -61.5t-5 -94.5q0 -53 -4 -109.5t-18.5 -112.5t-41 -108.5 t-71.5 -95.5q-66 -63 -156 -87q-67 -17 -146 -17q-28 0 -57 2z" />
<glyph unicode="t" horiz-adv-x="651" d="M109 444v879h270v-268h190v-240h-190v-373q0 -111 50 -155q44 -40 129 -40q12 0 24 1v-246q-37 -4 -71 -4q-74 0 -134 18q-88 27 -147.5 86.5t-90 146t-30.5 195.5z" />
<glyph unicode="u" horiz-adv-x="1173" d="M115 446v609h270v-617q0 -23 6 -56.5t26.5 -66t59.5 -55t107 -22.5q90 0 147 56t57 144v617h271v-609q0 -100 -34 -186t-96.5 -149.5t-150.5 -99.5t-194 -36q-111 0 -198 35t-147.5 97.5t-92 148.5t-31.5 190z" />
<glyph unicode="v" horiz-adv-x="1091" d="M2 1055h283l262 -787l264 787h279l-398 -1055h-291z" />
<glyph unicode="w" horiz-adv-x="1845" d="M115 446v609h270v-617q0 -23 6 -56.5t26.5 -66t59.5 -55t105 -22.5q92 0 148 55t56 145v617h271v-617q0 -23 6 -56.5t26.5 -66t59.5 -55t106 -22.5q90 0 147.5 55t57.5 145v617h271v-609q0 -100 -34 -187t-96.5 -150.5t-150.5 -99.5t-195 -36q-109 0 -193.5 40 t-143.5 110q-59 -70 -145.5 -110t-190.5 -40q-111 0 -197 35t-146.5 97.5t-92 149.5t-31.5 191z" />
<glyph unicode="x" horiz-adv-x="1124" d="M113 0v193q0 111 34.5 194.5t100.5 140.5q-66 57 -100.5 141.5t-34.5 194.5v191h270v-205q0 -90 50 -145.5t128 -55.5q80 0 130 55.5t50 145.5v205h271v-191q0 -109 -39 -192.5t-107 -143.5q68 -59 107 -144t39 -191v-193h-271v207q0 90 -50 145.5t-130 55.5 q-78 0 -128 -55.5t-50 -145.5v-207h-270z" />
<glyph unicode="y" horiz-adv-x="1171" d="M115 438v617h270v-617q0 -23 6 -57.5t26.5 -68t59.5 -57.5t105 -24q92 0 148 58.5t56 148.5v617h271v-1098q0 -106 -34 -193.5t-95.5 -150t-147.5 -96t-192 -33.5q-86 0 -164 26.5t-138.5 75.5t-101.5 117t-55 150h281q12 -59 60 -88t118 -29q55 0 93 17.5t61.5 47 t33.5 65.5t10 73v122q-47 -41 -108.5 -63.5t-132.5 -22.5q-96 0 -176 34t-136.5 94.5t-87 145.5t-30.5 189z" />
<glyph unicode="z" horiz-adv-x="1009" d="M43 0v233l557 578h-534v244h880v-242l-547 -569h566v-244h-922z" />
<glyph unicode="{" horiz-adv-x="684" d="M39 608v195q88 0 143.5 51t55.5 174v256q0 197 107.5 283t293.5 67v-198q-84 6 -121 -41t-37 -123v-268q0 -225 -155 -297q78 -39 116.5 -112t38.5 -187v-269q0 -76 37 -123t121 -41v-200q-186 -16 -293.5 69.5t-107.5 284.5v256q0 123 -55.5 173t-143.5 50z" />
<glyph unicode="|" horiz-adv-x="548" d="M139 0v1524h271v-1524h-271z" />
<glyph unicode="}" horiz-adv-x="684" d="M47 -25q82 -6 119 41t37 123v269q0 115 39 187.5t116 111.5q-156 72 -155 297v268q0 76 -37 123t-119 41v198q186 18 292.5 -67.5t106.5 -282.5v-256q0 -123 55.5 -174t143.5 -51v-195q-88 0 -143.5 -50t-55.5 -173v-256q0 -197 -107.5 -284t-291.5 -70v200z" />
<glyph unicode="~" horiz-adv-x="882" d="M82 1243q6 45 22.5 89t44 78t66.5 54.5t90 20.5q45 0 84 -12.5t74 -25.5t65.5 -25.5t59.5 -12.5q35 0 55.5 19.5t32.5 66.5h125q-6 -47 -22.5 -91t-43 -78t-63.5 -54.5t-84 -20.5q-45 0 -85 12.5t-75 26t-66.5 25.5t-62.5 12q-72 0 -92 -84h-125z" />
<glyph unicode="&#xa1;" horiz-adv-x="587" d="M160 0v999h270v-999h-270zM160 1155v268h270v-268h-270z" />
<glyph unicode="&#xa2;" horiz-adv-x="1095" d="M61 535q0 117 37 216t103.5 172.5t159 114.5t200.5 41q23 0 44.5 -2t43.5 -6l68 221h139l-80 -260q96 -47 163 -133t95 -201h-248q-14 35 -34.5 60.5t-44.5 46.5l-179 -584q10 -2 18.5 -3t18.5 -1q78 0 137.5 44t88.5 120h245q-20 -88 -62 -159.5t-103.5 -123t-139.5 -80 t-170 -28.5q-27 0 -51.5 3t-48.5 7l-68 -225h-139l82 268q-127 66 -201 195t-74 297zM307 535q0 -82 26.5 -149t74.5 -107l174 571h-17q-55 0 -103 -23.5t-82 -65.5t-53.5 -100t-19.5 -126z" />
<glyph unicode="&#xa3;" horiz-adv-x="1112" d="M88 0v252q76 0 112 42t36 140v180h-148v252h148v103q0 205 114.5 328.5t333.5 123.5h299v-260h-297q-98 0 -138 -41t-40 -141v-113h313v-252h-313v-125q0 -86 -20.5 -141t-61.5 -90h612v-258h-950z" />
<glyph unicode="&#xa4;" horiz-adv-x="1343" d="M51 434v154h121q-2 16 -3 34.5t-1 36.5q0 12 1 24.5t1 27.5h-119v151h148q31 98 89 182t138 143.5t177 93.5t206 34q297 0 475 -203l-115 -184q-53 78 -143 126t-209 48q-127 0 -223 -65.5t-145 -174.5h681l-94 -151h-628q-2 -12 -2 -26v-26q0 -18 1 -36.5t3 -34.5h551 l-95 -154h-411q47 -102 134 -161.5t197 -59.5q98 0 166 34t117 103h254q-70 -164 -205 -257t-332 -93q-102 0 -194 31.5t-167 89t-132 137.5t-88 176h-154z" />
<glyph unicode="&#xa5;" horiz-adv-x="1230" d="M2 1421h305l307 -608l310 608h305l-256 -469h164v-151h-246l-115 -209h330v-154h-354v-438h-273v438h-354v154h330l-115 209h-246v151h164z" />
<glyph unicode="&#xa7;" horiz-adv-x="1079" d="M68 715q0 68 32.5 133t110.5 113q-61 70 -61 186q2 68 30.5 125t80.5 100t126 66.5t164 23.5q88 0 159.5 -25.5t122 -70.5t76 -108.5t25.5 -139.5h-238q2 63 -44 95t-103 32q-31 0 -59.5 -6t-51 -18.5t-37 -31t-14.5 -42.5q0 -45 39 -65.5t131 -37.5q82 -16 164 -34.5 t146.5 -52t104.5 -89t40 -145.5q0 -72 -31 -132.5t-98 -103.5q29 -35 45 -78.5t16 -105.5q0 -72 -27.5 -132t-80 -104t-129 -70t-177.5 -26q-96 0 -172.5 28t-131 77t-84 115.5t-29.5 144.5h235q0 -59 50.5 -104.5t136.5 -45.5t132 29t46 74q0 23 -8.5 40t-34 30.5 t-70.5 25.5t-119 25q-90 14 -165.5 36.5t-131 58.5t-86 86t-30.5 124zM303 748q0 -53 61.5 -82t182.5 -45q29 -4 56.5 -10.5t55.5 -10.5q51 10 87 32.5t36 63.5q0 59 -69.5 83t-196.5 46q-25 4 -47.5 9.5t-44.5 11.5q-59 -16 -90 -41.5t-31 -56.5z" />
<glyph unicode="&#xa8;" horiz-adv-x="854" d="M121 1233v221h225v-221h-225zM506 1233v221h225v-221h-225z" />
<glyph unicode="&#xa9;" horiz-adv-x="1603" d="M61 717q0 154 58.5 288t159 234t235.5 158.5t289 58.5t288 -58.5t234 -158.5t158.5 -234.5t58.5 -287.5q0 -154 -58.5 -289t-158.5 -235.5t-234.5 -159t-287.5 -58.5q-154 0 -289 58.5t-235.5 159t-159 235.5t-58.5 289zM264 717q0 -115 42 -214.5t116 -174t172 -117.5 t209 -43t209 43t170.5 117.5t114.5 174t42 214.5q0 113 -42 213t-114.5 175t-171 118t-208.5 43q-111 0 -209 -43t-172 -118t-116 -175t-42 -213zM424 717q0 82 28.5 153.5t80 125t121 84t149.5 30.5q135 0 231 -79t129 -204h-209q-23 43 -60.5 69t-90.5 26q-37 0 -70 -16.5 t-56.5 -44t-37.5 -64.5t-14 -80t14 -80t37.5 -64.5t56.5 -44t70 -16.5q53 0 90 25.5t59 66.5h209q-33 -123 -129 -202.5t-229 -79.5q-80 0 -149.5 30.5t-121 85t-80 126t-28.5 153.5z" />
<glyph unicode="&#xaa;" horiz-adv-x="825" d="M61 1124q0 68 25 128.5t68 105.5t102 71.5t131 26.5t131.5 -26.5t102.5 -71.5t66.5 -105.5t23.5 -128.5v-315h-152v68q-76 -82 -194 -82q-61 0 -116.5 25.5t-97.5 70.5t-66 105t-24 128zM223 1124q0 -78 48 -128t116 -50t115 51.5t47 126.5q0 76 -47 128.5t-115 52.5 t-116 -51.5t-48 -129.5z" />
<glyph unicode="&#xab;" horiz-adv-x="866" d="M47 512v203l324 278v-215l-205 -164l205 -168v-215zM481 512v203l324 278v-215l-205 -164l205 -168v-215z" />
<glyph unicode="&#xac;" horiz-adv-x="458" d="M94 578v268h271v-268h-271z" />
<glyph unicode="&#xad;" horiz-adv-x="677" d="M61 442v252h555v-252h-555z" />
<glyph unicode="&#xae;" horiz-adv-x="1603" d="M61 717q0 154 58.5 288t159 234t235.5 158.5t289 58.5t288 -58.5t234 -158.5t158.5 -234.5t58.5 -287.5q0 -154 -58.5 -289t-158.5 -235.5t-234.5 -159t-287.5 -58.5q-154 0 -289 58.5t-235.5 159t-159 235.5t-58.5 289zM264 717q0 -115 42 -214.5t116 -174t172 -117.5 t209 -43t209 43t170.5 117.5t114.5 174t42 214.5q0 113 -42 213t-114.5 175t-171 118t-208.5 43q-111 0 -209 -43t-172 -118t-116 -175t-42 -213zM524 358v756h361q133 0 202.5 -73.5t69.5 -196.5q0 -78 -37 -135.5t-98 -87.5l141 -263h-225l-111 222h-102v-222h-201z M725 758h147q41 0 60.5 23.5t19.5 62.5q0 41 -19.5 63.5t-60.5 22.5h-147v-172z" />
<glyph unicode="&#xaf;" horiz-adv-x="825" d="M82 1219v178h661v-178h-661z" />
<glyph unicode="&#x2c9;" horiz-adv-x="825" d="M82 1219v178h661v-178h-661z" />
<glyph unicode="&#xb0;" horiz-adv-x="755" d="M63 1104q0 63 25 120.5t67 100.5t99 67.5t123 24.5t123 -24.5t100 -67.5t67.5 -100.5t24.5 -120.5q0 -66 -24.5 -123t-67.5 -100t-100.5 -68t-122.5 -25q-66 0 -123 25t-99 68t-67 100t-25 123zM219 1104q0 -33 12.5 -62.5t34 -51t50 -34t61.5 -12.5t61.5 12.5t50 34 t34 51t12.5 62.5q0 66 -46.5 112t-111.5 46q-66 0 -112 -46t-46 -112z" />
<glyph unicode="&#xb1;" horiz-adv-x="1820" d="M115 0v1040q0 104 30.5 193.5t91 151t148.5 91t203 17.5v-242q-100 6 -150.5 -41t-52.5 -157h320q2 102 33.5 189t91 146.5t147.5 88t201 16.5v-242q-100 6 -150.5 -41t-52.5 -157h190v-260h-190v-793h-270v793h-320v-793h-270zM1327 442v1082h272v-1082 q0 -113 50.5 -156.5t150.5 -37.5v-246q-117 -12 -205 14.5t-147 85t-90 145t-31 195.5z" />
<glyph unicode="&#xb2;" horiz-adv-x="729" d="M20 541l334 391q39 45 62.5 76.5t36 56.5t16.5 47.5t4 48.5q0 16 -6 37t-21.5 38t-40 28.5t-59.5 11.5q-72 0 -104.5 -44t-32.5 -102h-168q0 70 23.5 127.5t64.5 99.5t96.5 64.5t120.5 22.5q63 0 117.5 -22.5t93.5 -60.5t61.5 -90t22.5 -110q0 -47 -9 -87t-29.5 -78 t-51.5 -77.5t-74 -89.5l-121 -133h279v-155h-615z" />
<glyph unicode="&#xb3;" horiz-adv-x="763" d="M31 786h172q14 -43 55 -68.5t107 -25.5q74 0 117.5 43t43.5 115q0 74 -43 116t-121 48q-41 2 -79.5 -1t-75.5 -9l172 262h-291v155h592l-211 -293q102 -20 163.5 -90.5t61.5 -187.5q0 -72 -24.5 -131.5t-68.5 -103.5t-104.5 -68.5t-131.5 -24.5q-72 0 -130.5 21.5 t-101.5 58.5t-69.5 84t-32.5 100z" />
<glyph unicode="&#xb4;" horiz-adv-x="854" d="M190 1192l191 289h303l-295 -289h-199z" />
<glyph unicode="&#xb5;" horiz-adv-x="458" d="M94 578v268h271v-268h-271z" />
<glyph unicode="&#x3bc;" horiz-adv-x="458" d="M94 578v268h271v-268h-271z" />
<glyph unicode="&#xb6;" horiz-adv-x="1251" d="M51 963q0 104 31 189t91 144.5t147.5 92t199.5 32.5h600v-1421h-213v1217h-153v-1217h-213v508h-27q-104 0 -190 33.5t-146.5 94t-93.5 145t-33 182.5z" />
<glyph unicode="&#xb7;" horiz-adv-x="458" d="M94 578v268h271v-268h-271z" />
<glyph unicode="&#x2219;" horiz-adv-x="458" d="M94 578v268h271v-268h-271z" />
<glyph unicode="&#xb8;" horiz-adv-x="630" d="M82 -371l35 74q55 -31 104 -41t86 -6t57.5 22.5t20.5 47.5q0 27 -15.5 44t-40 23t-52 4t-52.5 -14l-78 47l84 170h134l-84 -123q37 16 84 17.5t88 -15t68.5 -53.5t27.5 -94q0 -45 -19.5 -79t-51.5 -57.5t-75 -36t-88 -12.5q-76 0 -132 23.5t-101 58.5z" />
<glyph unicode="&#xb9;" horiz-adv-x="505" d="M57 1266v155h269v-880h-166v725h-103z" />
<glyph unicode="&#xba;" horiz-adv-x="759" d="M61 1124q0 70 26 131.5t69 105.5t101 69.5t124 25.5t124 -25.5t101 -69.5t67.5 -105.5t24.5 -131.5q0 -72 -24.5 -131t-67.5 -104t-101.5 -69.5t-123.5 -24.5q-66 0 -124 24.5t-101 69.5t-69 104t-26 131zM225 1124q0 -82 45 -132t111 -50t111 50t45 132t-45.5 133.5 t-110.5 51.5q-66 0 -111 -51.5t-45 -133.5z" />
<glyph unicode="&#xbb;" horiz-adv-x="864" d="M59 231v215l205 168l-205 164v215l324 -278v-203zM494 231v215l204 168l-204 164v215l323 -278v-203z" />
<glyph unicode="&#xbc;" horiz-adv-x="1474" d="M57 1266v155h271v-880h-168v725h-103zM164 -25l833 1446h172l-835 -1446h-170zM780 180v148l344 553h197v-553h92v-148h-92v-180h-158v180h-383zM946 328h217v348z" />
<glyph unicode="&#xbd;" horiz-adv-x="1609" d="M57 1266v155h269v-880h-166v725h-103zM162 -25l835 1446h170l-833 -1446h-172zM903 0l332 391q39 45 62.5 77t37 57.5t17.5 47t4 48.5q0 16 -7.5 36.5t-22.5 38t-39.5 28.5t-59.5 11q-72 0 -104.5 -44t-32.5 -99h-168q0 70 23.5 127t65.5 98t97 63.5t119 22.5 q63 0 117.5 -22.5t93.5 -60.5t61.5 -90t22.5 -109q0 -47 -9.5 -87t-29 -78t-51 -78t-74.5 -89l-121 -133h281v-156h-615z" />
<glyph unicode="&#xbe;" horiz-adv-x="1734" d="M31 786h172q16 -43 57 -68.5t107 -25.5q74 0 117.5 43t43.5 115q0 74 -44 116t-122 48q-76 2 -153 -10l172 262h-293v155h594l-211 -293q102 -20 162.5 -90.5t60.5 -187.5q0 -72 -24.5 -131.5t-67.5 -103.5t-103.5 -68.5t-131.5 -24.5q-72 0 -130.5 21.5t-102.5 58.5 t-70.5 84t-32.5 100zM422 -25l833 1446h172l-835 -1446h-170zM1038 180v148l344 553h197v-553h94v-148h-94v-180h-158v180h-383zM1204 328h217v348z" />
<glyph unicode="&#xbf;" horiz-adv-x="1130" d="M94 391q0 63 18.5 114.5t50.5 94.5t76 79t95 71q70 47 99.5 95t29.5 113v48h250v-48q0 -80 -19.5 -139t-52.5 -104t-73 -78t-81 -62q-68 -49 -96.5 -90t-28.5 -94q0 -74 54.5 -121t152.5 -47q111 0 168.5 61.5t57.5 153.5h266q0 -102 -34 -188t-97.5 -147.5t-154.5 -95.5 t-206 -34q-113 0 -200.5 32t-149 87t-93.5 132t-32 167zM453 1161v269h272v-269h-272z" />
<glyph unicode="&#xc0;" d="M127 0v942q0 111 37 205t106 164q72 72 166 108.5t205 36.5t206 -37t167 -108q70 -70 106.5 -164t36.5 -205v-942h-270v397h-490v-397h-270zM266 1829h303l191 -289h-199zM397 657h490v291q0 115 -64.5 179.5t-181.5 64.5q-115 0 -179.5 -64.5t-64.5 -179.5v-291z" />
<glyph unicode="&#xc1;" d="M127 0v942q0 111 37 205t106 164q72 72 166 108.5t205 36.5t206 -37t167 -108q70 -70 106.5 -164t36.5 -205v-942h-270v397h-490v-397h-270zM397 657h490v291q0 115 -64.5 179.5t-181.5 64.5q-115 0 -179.5 -64.5t-64.5 -179.5v-291zM551 1540l190 289h303l-294 -289 h-199z" />
<glyph unicode="&#xc2;" d="M127 0v942q0 111 37 205t106 164q72 72 166 108.5t205 36.5t206 -37t167 -108q70 -70 106.5 -164t36.5 -205v-942h-270v397h-490v-397h-270zM301 1540l227 291h244l225 -291h-221l-127 170l-125 -170h-223zM397 657h490v291q0 115 -64.5 179.5t-181.5 64.5 q-115 0 -179.5 -64.5t-64.5 -179.5v-291z" />
<glyph unicode="&#xc3;" d="M127 0v942q0 111 37 205t106 164q72 72 166 108.5t205 36.5t206 -37t167 -108q70 -70 106.5 -164t36.5 -205v-942h-270v397h-490v-397h-270zM313 1554q6 45 22.5 89.5t44.5 78t66.5 54t90.5 20.5q45 0 83.5 -12t73.5 -25.5t66 -26t59 -12.5q35 0 55.5 19.5t32.5 66.5h125 q-6 -47 -22.5 -91t-43 -77.5t-63.5 -54t-84 -20.5q-45 0 -85 12t-74.5 25.5t-66.5 25.5t-63 12q-72 0 -92 -84h-125zM397 657h490v291q0 115 -64.5 179.5t-181.5 64.5q-115 0 -179.5 -64.5t-64.5 -179.5v-291z" />
<glyph unicode="&#xc4;" d="M127 0v942q0 111 37 205t106 164q72 72 166 108.5t205 36.5t206 -37t167 -108q70 -70 106.5 -164t36.5 -205v-942h-270v397h-490v-397h-270zM332 1563v227h252v-227h-252zM397 657h490v291q0 115 -64.5 179.5t-181.5 64.5q-115 0 -179.5 -64.5t-64.5 -179.5v-291z M717 1563v227h252v-227h-252z" />
<glyph unicode="&#xc5;" d="M127 0v942q0 111 37 205t106 164q72 72 166 108.5t205 36.5t206 -37t167 -108q70 -70 106.5 -164t36.5 -205v-942h-270v397h-490v-397h-270zM397 657h490v291q0 115 -64.5 179.5t-181.5 64.5q-115 0 -179.5 -64.5t-64.5 -179.5v-291zM436 1741q0 45 17.5 84t47 68.5 t68.5 47t84 17.5t85 -17.5t69 -47t46 -68.5t17 -84q0 -92 -62.5 -154.5t-154.5 -62.5q-45 0 -84 17.5t-68.5 46t-47 68.5t-17.5 85zM557 1741q0 -41 27.5 -71t68.5 -30t70 30t29 71t-29 70.5t-70 29.5t-68.5 -29.5t-27.5 -70.5z" />
<glyph unicode="&#xc6;" horiz-adv-x="1923" d="M127 0v942q0 111 37 205t106 166q72 70 166 106.5t205 36.5q129 0 222 -45t153 -121q49 63 127 97t190 34h504v-266h-502q-98 0 -138 -41t-40 -139v-131h565v-258h-565v-137q0 -98 40 -140.5t138 -42.5h508v-266h-510q-205 0 -317.5 108.5t-126.5 290.5h-492v-399h-270z M397 657h490v291q0 115 -64.5 179.5t-181.5 64.5q-115 0 -179.5 -64.5t-64.5 -179.5v-291z" />
<glyph unicode="&#xc7;" horiz-adv-x="1449" d="M68 717q0 156 53 291t145 235t218 157.5t272 57.5q121 0 224 -32.5t186 -94t143.5 -149.5t93.5 -197h-293q-51 98 -141 159.5t-213 61.5q-88 0 -164 -39t-132.5 -105.5t-89 -155.5t-32.5 -189t32.5 -189.5t89 -157t132.5 -106.5t164 -39q123 0 213 63.5t141 162.5h291 q-33 -106 -92.5 -193.5t-140.5 -149t-180 -96.5t-214 -37l-67 -96q39 16 86 17.5t88 -16t68.5 -54.5t27.5 -94q0 -45 -19.5 -79t-52.5 -57.5t-76 -36t-88 -12.5q-74 0 -130 23.5t-101 58.5l35 74q55 -31 104 -41t85 -5t57.5 23.5t21.5 45.5t-15.5 44t-40 23t-52 4t-52.5 -14 l-80 47l76 154q-125 20 -231.5 83.5t-184 161t-121.5 222.5t-44 266z" />
<glyph unicode="&#xc8;" horiz-adv-x="1157" d="M127 453v516q0 102 28.5 185t86 142.5t140.5 92t193 32.5h502v-266h-499q-98 0 -139.5 -41t-41.5 -139v-137h576v-252h-576v-137q0 -98 41 -140.5t140 -42.5h499v-266h-502q-111 0 -193.5 33t-140 92t-86 142.5t-28.5 185.5zM326 1829h303l190 -289h-198z" />
<glyph unicode="&#xc9;" horiz-adv-x="1157" d="M127 453v516q0 102 28.5 185t86 142.5t140.5 92t193 32.5h502v-266h-499q-98 0 -139.5 -41t-41.5 -139v-137h576v-252h-576v-137q0 -98 41 -140.5t140 -42.5h499v-266h-502q-111 0 -193.5 33t-140 92t-86 142.5t-28.5 185.5zM526 1540l191 289h303l-295 -289h-199z" />
<glyph unicode="&#xca;" horiz-adv-x="1157" d="M127 453v516q0 102 28.5 185t86 142.5t140.5 92t193 32.5h502v-266h-499q-98 0 -139.5 -41t-41.5 -139v-137h576v-252h-576v-137q0 -98 41 -140.5t140 -42.5h499v-266h-502q-111 0 -193.5 33t-140 92t-86 142.5t-28.5 185.5zM362 1540l228 291h244l225 -291h-221 l-127 170l-125 -170h-224z" />
<glyph unicode="&#xcb;" horiz-adv-x="1157" d="M127 453v516q0 102 28.5 185t86 142.5t140.5 92t193 32.5h502v-266h-499q-98 0 -139.5 -41t-41.5 -139v-137h576v-252h-576v-137q0 -98 41 -140.5t140 -42.5h499v-266h-502q-111 0 -193.5 33t-140 92t-86 142.5t-28.5 185.5zM360 1563v227h252v-227h-252zM745 1563v227 h252v-227h-252z" />
<glyph unicode="&#xcc;" horiz-adv-x="542" d="M-94 1829h303l190 -289h-198zM137 0v1421h271v-1421h-271z" />
<glyph unicode="&#xcd;" horiz-adv-x="542" d="M137 0v1421h271v-1421h-271zM154 1540l190 289h303l-295 -289h-198z" />
<glyph unicode="&#xce;" horiz-adv-x="542" d="M-76 1540l228 291h243l226 -291h-222l-127 170l-125 -170h-223zM137 0v1421h271v-1421h-271z" />
<glyph unicode="&#xcf;" horiz-adv-x="542" d="M-39 1563v227h252v-227h-252zM137 0v1421h271v-1421h-271zM346 1563v227h252v-227h-252z" />
<glyph unicode="&#xd0;" horiz-adv-x="1415" d="M31 657v252h149v512h527q147 0 266 -49t201.5 -141t128 -224.5t45.5 -295.5q0 -164 -45.5 -295t-129 -223.5t-202.5 -142.5t-264 -50h-527v657h-149zM453 252h254q121 0 193.5 48t112.5 117.5t52 149.5t12 146q0 78 -15 158.5t-56 147t-113 108.5t-186 42h-254v-260h333 v-252h-333v-405z" />
<glyph unicode="&#xd1;" d="M127 0v942q0 111 37 205t106 164q72 72 166 108.5t205 36.5t206 -37t167 -108q70 -70 106.5 -164t36.5 -205v-942h-270v948q0 115 -64.5 179.5t-181.5 64.5q-115 0 -179.5 -64.5t-64.5 -179.5v-948h-270zM330 1593q10 106 68.5 176t146.5 70q43 0 76.5 -14.5t64.5 -31.5 t59.5 -31.5t61.5 -14.5q41 0 64.5 25.5t35.5 60.5h113q-12 -106 -71.5 -176t-145.5 -70q-43 0 -77 14.5t-64.5 32t-59.5 31.5t-61 14q-41 0 -64.5 -25.5t-36.5 -60.5h-110z" />
<glyph unicode="&#xd2;" horiz-adv-x="1525" d="M68 717q0 154 52 289t144 235t220 157.5t280 57.5q150 0 277.5 -57.5t220 -157.5t144.5 -235.5t52 -288.5q0 -156 -52 -291t-144.5 -235.5t-220.5 -158t-277 -57.5q-152 0 -280 57.5t-220 158t-144 235.5t-52 291zM340 717q0 -100 33 -188.5t90 -155t135 -104.5t166 -38 t165 38t134 104.5t90 154.5t33 189q0 98 -33 186t-90 154.5t-134 104.5t-165 38t-166 -38t-135 -104.5t-90 -154.5t-33 -186zM360 1829h304l190 -289h-199z" />
<glyph unicode="&#xd3;" horiz-adv-x="1525" d="M68 717q0 154 52 289t144 235t220 157.5t280 57.5q150 0 277.5 -57.5t220 -157.5t144.5 -235.5t52 -288.5q0 -156 -52 -291t-144.5 -235.5t-220.5 -158t-277 -57.5q-152 0 -280 57.5t-220 158t-144 235.5t-52 291zM340 717q0 -100 33 -188.5t90 -155t135 -104.5t166 -38 t165 38t134 104.5t90 154.5t33 189q0 98 -33 186t-90 154.5t-134 104.5t-165 38t-166 -38t-135 -104.5t-90 -154.5t-33 -186zM659 1540l191 289h303l-295 -289h-199z" />
<glyph unicode="&#xd4;" horiz-adv-x="1525" d="M68 717q0 154 52 289t144 235t220 157.5t280 57.5q150 0 277.5 -57.5t220 -157.5t144.5 -235.5t52 -288.5q0 -156 -52 -291t-144.5 -235.5t-220.5 -158t-277 -57.5q-152 0 -280 57.5t-220 158t-144 235.5t-52 291zM340 717q0 -100 33 -188.5t90 -155t135 -104.5t166 -38 t165 38t134 104.5t90 154.5t33 189q0 98 -33 186t-90 154.5t-134 104.5t-165 38t-166 -38t-135 -104.5t-90 -154.5t-33 -186zM416 1540l227 291h244l225 -291h-221l-127 170l-125 -170h-223z" />
<glyph unicode="&#xd5;" horiz-adv-x="1525" d="M68 717q0 154 52 289t144 235t220 157.5t280 57.5q150 0 277.5 -57.5t220 -157.5t144.5 -235.5t52 -288.5q0 -156 -52 -291t-144.5 -235.5t-220.5 -158t-277 -57.5q-152 0 -280 57.5t-220 158t-144 235.5t-52 291zM340 717q0 -100 33 -188.5t90 -155t135 -104.5t166 -38 t165 38t134 104.5t90 154.5t33 189q0 98 -33 186t-90 154.5t-134 104.5t-165 38t-166 -38t-135 -104.5t-90 -154.5t-33 -186zM424 1554q6 45 22.5 89.5t44 78t66.5 54t90 20.5q45 0 84 -12t74 -25.5t65.5 -26t59.5 -12.5q35 0 55.5 19.5t32.5 66.5h125q-6 -47 -22.5 -91 t-43 -77.5t-63.5 -54t-84 -20.5q-45 0 -85 12t-75 25.5t-66.5 25.5t-62.5 12q-72 0 -92 -84h-125z" />
<glyph unicode="&#xd6;" horiz-adv-x="1525" d="M68 717q0 154 52 289t144 235t220 157.5t280 57.5q150 0 277.5 -57.5t220 -157.5t144.5 -235.5t52 -288.5q0 -156 -52 -291t-144.5 -235.5t-220.5 -158t-277 -57.5q-152 0 -280 57.5t-220 158t-144 235.5t-52 291zM340 717q0 -100 33 -188.5t90 -155t135 -104.5t166 -38 t165 38t134 104.5t90 154.5t33 189q0 98 -33 186t-90 154.5t-134 104.5t-165 38t-166 -38t-135 -104.5t-90 -154.5t-33 -186zM453 1563v227h252v-227h-252zM838 1563v227h252v-227h-252z" />
<glyph unicode="&#xd7;" horiz-adv-x="1052" d="M20 152l365 366l-365 363l142 141l364 -365l365 365l141 -141l-364 -363l364 -366l-141 -142l-365 365l-364 -365z" />
<glyph unicode="&#xd8;" horiz-adv-x="1525" d="M68 102l147 150q-70 94 -107.5 212t-37.5 253q0 154 52 289t144 235t219 157.5t279 57.5q139 0 256 -47t207 -133l143 143l105 -104l-150 -152q63 -94 98 -206.5t35 -239.5q0 -156 -52 -291t-144.5 -235.5t-219.5 -158t-278 -57.5q-131 0 -243.5 44t-203.5 122l-143 -145 zM340 717q0 -74 18.5 -141.5t53.5 -126.5l626 634q-55 55 -125.5 86t-148.5 31q-88 0 -165 -38t-134 -104.5t-91 -154.5t-34 -186zM506 334q53 -47 118.5 -75t139.5 -28q88 0 165 38t134 104.5t91 154.5t34 189q0 66 -16.5 129t-45.5 117z" />
<glyph unicode="&#xd9;" d="M127 489v932h270v-936q0 -117 64.5 -181t179.5 -64q117 0 181.5 64.5t64.5 180.5v936h270v-932q0 -111 -37 -205t-106 -165q-72 -70 -167 -107t-206 -37t-205 37t-166 107q-70 72 -106.5 165.5t-36.5 204.5zM256 1829h303l191 -289h-199z" />
<glyph unicode="&#xda;" d="M127 489v932h270v-936q0 -117 64.5 -181t179.5 -64q117 0 181.5 64.5t64.5 180.5v936h270v-932q0 -111 -37 -205t-106 -165q-72 -70 -167 -107t-206 -37t-205 37t-166 107q-70 72 -106.5 165.5t-36.5 204.5zM573 1540l191 289h303l-295 -289h-199z" />
<glyph unicode="&#xdb;" d="M127 489v932h270v-936q0 -117 64.5 -181t179.5 -64q117 0 181.5 64.5t64.5 180.5v936h270v-932q0 -111 -37 -205t-106 -165q-72 -70 -167 -107t-206 -37t-205 37t-166 107q-70 72 -106.5 165.5t-36.5 204.5zM309 1540l228 291h243l226 -291h-222l-127 170l-125 -170h-223 z" />
<glyph unicode="&#xdc;" d="M127 489v932h270v-936q0 -117 64.5 -181t179.5 -64q117 0 181.5 64.5t64.5 180.5v936h270v-932q0 -111 -37 -205t-106 -165q-72 -70 -167 -107t-206 -37t-205 37t-166 107q-70 72 -106.5 165.5t-36.5 204.5zM332 1563v227h252v-227h-252zM717 1563v227h252v-227h-252z " />
<glyph unicode="&#xdd;" horiz-adv-x="1255" d="M113 1028v393h272v-399q0 -117 63.5 -180.5t180.5 -63.5q115 0 179 63.5t64 180.5v399h271v-393q0 -111 -37 -206t-107 -165q-98 -98 -235 -129v-528h-272v528q-137 31 -236 129q-70 70 -106.5 165t-36.5 206zM539 1532l190 297h293l-287 -297h-196z" />
<glyph unicode="&#xde;" horiz-adv-x="1249" d="M131 0v1421h270v-184h328q111 0 199 -33t147.5 -92t91 -144t31.5 -190q0 -100 -32.5 -184t-93 -144.5t-146.5 -94t-193 -33.5h-332v-322h-270zM401 571h326q94 0 147.5 49.5t53.5 157.5q0 109 -53.5 158t-147.5 49h-326v-414z" />
<glyph unicode="&#xdf;" horiz-adv-x="1208" d="M123 0v1059q0 94 35 179t97 148.5t148 100.5t189 37q104 0 190 -34t146.5 -92.5t94.5 -134t34 -161.5q0 -92 -35 -167t-100 -128q111 -49 168 -146.5t57 -220.5q0 -109 -33 -194.5t-93 -146t-145 -93.5t-190 -33q-47 0 -101.5 10.5t-90.5 26.5v252q41 -16 85 -23.5 t91 -7.5q102 0 154.5 60.5t52.5 152.5t-61.5 145.5t-153.5 53.5h-168v252h118q33 0 64 10t55.5 33t39.5 58.5t15 84.5q0 86 -50 136.5t-142 50.5q-86 0 -142.5 -60.5t-56.5 -156.5v-1051h-272z" />
<glyph unicode="&#xe0;" horiz-adv-x="1259" d="M61 526q0 115 40 216.5t112 176t171 118.5t220 44q119 0 218.5 -44t171 -118.5t111.5 -176t40 -216.5v-526h-256v111q-59 -66 -142 -100t-180 -34q-104 0 -196 43t-161 118t-109 174t-40 214zM211 1481h301l190 -289h-198zM334 524q0 -63 21.5 -117.5t58.5 -94.5 t86 -62.5t104 -22.5t104.5 23.5t86 63.5t58 94.5t21.5 115.5q0 63 -21.5 118.5t-58 96.5t-86 64.5t-104.5 23.5t-104 -22.5t-86 -63.5t-58.5 -96t-21.5 -121z" />
<glyph unicode="&#xe1;" horiz-adv-x="1259" d="M61 526q0 115 40 216.5t112 176t171 118.5t220 44q119 0 218.5 -44t171 -118.5t111.5 -176t40 -216.5v-526h-256v111q-59 -66 -142 -100t-180 -34q-104 0 -196 43t-161 118t-109 174t-40 214zM334 524q0 -63 21.5 -117.5t58.5 -94.5t86 -62.5t104 -22.5t104.5 23.5 t86 63.5t58 94.5t21.5 115.5q0 63 -21.5 118.5t-58 96.5t-86 64.5t-104.5 23.5t-104 -22.5t-86 -63.5t-58.5 -96t-21.5 -121zM510 1192l190 289h304l-295 -289h-199z" />
<glyph unicode="&#xe2;" horiz-adv-x="1259" d="M61 526q0 115 40 216.5t112 176t171 118.5t220 44q119 0 218.5 -44t171 -118.5t111.5 -176t40 -216.5v-526h-256v111q-59 -66 -142 -100t-180 -34q-104 0 -196 43t-161 118t-109 174t-40 214zM258 1192l227 291h242l227 -291h-221l-127 170l-125 -170h-223zM334 524 q0 -63 21.5 -117.5t58.5 -94.5t86 -62.5t104 -22.5t104.5 23.5t86 63.5t58 94.5t21.5 115.5q0 63 -21.5 118.5t-58 96.5t-86 64.5t-104.5 23.5t-104 -22.5t-86 -63.5t-58.5 -96t-21.5 -121z" />
<glyph unicode="&#xe3;" horiz-adv-x="1259" d="M61 526q0 115 40 216.5t112 176t171 118.5t220 44q119 0 218.5 -44t171 -118.5t111.5 -176t40 -216.5v-526h-256v111q-59 -66 -142 -100t-180 -34q-104 0 -196 43t-161 118t-109 174t-40 214zM264 1206q6 45 23.5 89t45 79t66.5 55.5t90 20.5q45 0 84 -12.5t73 -26.5 t64.5 -26.5t59.5 -12.5q35 0 55.5 19.5t32.5 66.5h127q-6 -47 -22.5 -91t-43 -78t-63.5 -54.5t-86 -20.5q-45 0 -84 12.5t-73.5 26t-66.5 25.5t-63 12q-72 0 -92 -84h-127zM334 524q0 -63 21.5 -117.5t58.5 -94.5t86 -62.5t104 -22.5t104.5 23.5t86 63.5t58 94.5t21.5 115.5 q0 63 -21.5 118.5t-58 96.5t-86 64.5t-104.5 23.5t-104 -22.5t-86 -63.5t-58.5 -96t-21.5 -121z" />
<glyph unicode="&#xe4;" horiz-adv-x="1259" d="M61 526q0 115 40 216.5t112 176t171 118.5t220 44q119 0 218.5 -44t171 -118.5t111.5 -176t40 -216.5v-526h-256v111q-59 -66 -142 -100t-180 -34q-104 0 -196 43t-161 118t-109 174t-40 214zM291 1212v228h250v-228h-250zM334 524q0 -63 21.5 -117.5t58.5 -94.5 t86 -62.5t104 -22.5t104.5 23.5t86 63.5t58 94.5t21.5 115.5q0 63 -21.5 118.5t-58 96.5t-86 64.5t-104.5 23.5t-104 -22.5t-86 -63.5t-58.5 -96t-21.5 -121zM676 1212v228h250v-228h-250z" />
<glyph unicode="&#xe5;" horiz-adv-x="1259" d="M61 526q0 115 40 216.5t112 176t171 118.5t220 44q119 0 218.5 -44t171 -118.5t111.5 -176t40 -216.5v-526h-256v111q-59 -66 -142 -100t-180 -34q-104 0 -196 43t-161 118t-109 174t-40 214zM334 524q0 -63 21.5 -117.5t58.5 -94.5t86 -62.5t104 -22.5t104.5 23.5 t86 63.5t58 94.5t21.5 115.5q0 63 -21.5 118.5t-58 96.5t-86 64.5t-104.5 23.5t-104 -22.5t-86 -63.5t-58.5 -96t-21.5 -121zM406 1397q0 45 17 85t47 68.5t69 46t84 17.5q92 0 154.5 -62.5t62.5 -154.5q0 -45 -17.5 -84t-46 -69t-68.5 -47t-85 -17t-84 17t-69 47t-47 69 t-17 84zM526 1397q0 -41 28 -71t69 -30t69.5 30t28.5 71q0 43 -28.5 72.5t-69.5 29.5t-69 -29.5t-28 -72.5z" />
<glyph unicode="&#xe6;" horiz-adv-x="2009" d="M61 526q0 115 40 216.5t112 176t171 118.5t218 44q131 0 235.5 -54t174.5 -146q70 92 176 146t229 54q96 0 183.5 -28.5t157 -86t118.5 -140.5t68 -189l-742 -311q80 -104 215 -105q66 0 126.5 29t98.5 86h287q-23 -80 -70 -146.5t-111.5 -114.5t-145 -74t-170.5 -26 q-96 0 -176 32t-142 87v-94h-225v100q-123 -123 -311 -123q-109 0 -202 43t-164 118t-111 174t-40 214zM332 526q0 -59 21.5 -112.5t58.5 -92t86 -61t104 -22.5t105.5 22.5t87 61t58 92t21.5 112.5t-21.5 112.5t-58 93.5t-87 63.5t-105.5 23.5t-104 -23.5t-86 -63.5 t-58.5 -93.5t-21.5 -112.5zM1141 553l481 201q-39 43 -92 62.5t-113 19.5q-53 0 -102 -20.5t-86 -57.5t-60.5 -89.5t-27.5 -115.5z" />
<glyph unicode="&#xe7;" horiz-adv-x="1169" d="M61 524q0 115 41 216.5t113 177t172 119.5t219 44q94 0 177 -26.5t149.5 -75.5t113 -120t70.5 -159h-291q-31 53 -88 86t-131 33q-55 0 -104 -23.5t-86 -63.5t-58.5 -93t-21.5 -115q0 -59 21.5 -111.5t58.5 -92t86 -62t104 -22.5q76 0 133.5 32.5t87.5 87.5h289 q-45 -178 -176 -278.5t-319 -104.5l-50 -79q33 12 74 11t76 -17.5t58.5 -48.5t23.5 -81q0 -78 -51.5 -121t-137.5 -43q-53 0 -106 25t-90 62l37 63q29 -29 67.5 -42t77.5 -13q35 0 60.5 16t25.5 49q0 27 -21.5 47.5t-60.5 20.5q-18 0 -36.5 -5t-35.5 -22l-73 49l69 136 q-104 14 -190 62t-147.5 121t-95.5 165t-34 196z" />
<glyph unicode="&#xe8;" horiz-adv-x="1185" d="M61 526q0 115 42 216.5t116 176t172 118.5t211 44q94 0 180 -29.5t155 -86t117 -138.5t66 -188l-745 -313q41 -53 98 -83t127 -30q66 0 127 29.5t96 93.5h289q-47 -162 -179 -261.5t-331 -99.5q-113 0 -211 43t-172 118t-116 175t-42 215zM221 1481h301l191 -289h-199z M313 541l496 209q-37 45 -90 69.5t-119 24.5q-59 0 -110.5 -22.5t-89.5 -62.5t-61.5 -95t-25.5 -123z" />
<glyph unicode="&#xe9;" horiz-adv-x="1185" d="M61 526q0 115 42 216.5t116 176t172 118.5t211 44q94 0 180 -29.5t155 -86t117 -138.5t66 -188l-745 -313q41 -53 98 -83t127 -30q66 0 127 29.5t96 93.5h289q-47 -162 -179 -261.5t-331 -99.5q-113 0 -211 43t-172 118t-116 175t-42 215zM313 541l496 209 q-37 45 -90 69.5t-119 24.5q-59 0 -110.5 -22.5t-89.5 -62.5t-61.5 -95t-25.5 -123zM510 1192l190 289h304l-295 -289h-199z" />
<glyph unicode="&#xea;" horiz-adv-x="1185" d="M61 526q0 115 42 216.5t116 176t172 118.5t211 44q94 0 180 -29.5t155 -86t117 -138.5t66 -188l-745 -313q41 -53 98 -83t127 -30q66 0 127 29.5t96 93.5h289q-47 -162 -179 -261.5t-331 -99.5q-113 0 -211 43t-172 118t-116 175t-42 215zM252 1192l227 291h242l227 -291 h-221l-127 170l-125 -170h-223zM313 541l496 209q-37 45 -90 69.5t-119 24.5q-59 0 -110.5 -22.5t-89.5 -62.5t-61.5 -95t-25.5 -123z" />
<glyph unicode="&#xeb;" horiz-adv-x="1185" d="M61 526q0 115 42 216.5t116 176t172 118.5t211 44q94 0 180 -29.5t155 -86t117 -138.5t66 -188l-745 -313q41 -53 98 -83t127 -30q66 0 127 29.5t96 93.5h289q-47 -162 -179 -261.5t-331 -99.5q-113 0 -211 43t-172 118t-116 175t-42 215zM283 1212v228h249v-228h-249z M313 541l496 209q-37 45 -90 69.5t-119 24.5q-59 0 -110.5 -22.5t-89.5 -62.5t-61.5 -95t-25.5 -123zM668 1212v228h250v-228h-250z" />
<glyph unicode="&#xec;" horiz-adv-x="530" d="M-94 1481h301l190 -289h-198zM129 0v1055h270v-1055h-270z" />
<glyph unicode="&#xed;" horiz-adv-x="530" d="M129 0v1055h270v-1055h-270zM141 1192l191 289h303l-295 -289h-199z" />
<glyph unicode="&#xee;" horiz-adv-x="530" d="M-82 1192l227 291h242l227 -291h-221l-127 170l-125 -170h-223zM129 0v1055h270v-1055h-270z" />
<glyph unicode="&#xef;" horiz-adv-x="530" d="M-47 1212v228h250v-228h-250zM129 0v1055h270v-1055h-270zM338 1212v228h250v-228h-250z" />
<glyph unicode="&#xf0;" horiz-adv-x="1202" d="M68 512q0 131 46 233.5t118.5 172t160.5 105.5t172 36q92 0 172 -35q-37 53 -84 103.5t-104 93.5l-152 -111l-112 70l155 112q-35 18 -69.5 34.5t-71.5 29.5l201 151q35 -16 67.5 -34.5t65.5 -38.5l127 94l112 -70l-135 -100q188 -158 284.5 -376t96.5 -456 q0 -123 -41 -225t-112.5 -176t-167 -115t-203.5 -41q-109 0 -205 41t-167.5 114t-112.5 172t-41 216zM336 512q0 -66 20.5 -121t55 -95t82 -61.5t100.5 -21.5t100 21.5t82 61.5t55.5 95t20.5 121q0 68 -20.5 123t-55.5 95t-82 62.5t-100 22.5t-100.5 -22.5t-82 -62.5 t-55 -95t-20.5 -123z" />
<glyph unicode="&#xf1;" horiz-adv-x="1173" d="M115 0v610q0 100 33.5 186.5t96 150t149.5 99t196 35.5q111 0 197.5 -34.5t147 -97t92.5 -148.5t32 -191v-610h-271v616q0 23 -6 57t-26.5 66.5t-59.5 55t-106 22.5q-90 0 -147.5 -55t-57.5 -146v-616h-270zM248 1206q6 45 23.5 89t45 79t66.5 55.5t90 20.5 q45 0 84 -12.5t73 -26.5t64.5 -26.5t59.5 -12.5q35 0 55 19.5t33 66.5h127q-6 -47 -22.5 -91t-43 -78t-63.5 -54.5t-86 -20.5q-45 0 -84 12.5t-74 26t-66.5 25.5t-62.5 12q-72 0 -92 -84h-127z" />
<glyph unicode="&#xf2;" horiz-adv-x="1185" d="M61 526q0 119 42 220.5t114 176t168 116.5t207 42t207 -42t168.5 -116.5t114.5 -176t42 -220.5t-42 -219t-114.5 -174t-169 -116t-206.5 -42q-111 0 -207 42t-168 116t-114 174t-42 219zM207 1481h301l190 -289h-198zM332 524q0 -68 20.5 -123t55 -95t83 -61.5 t101.5 -21.5t100 21.5t83 61.5t56.5 95.5t20.5 122.5q0 68 -20.5 125.5t-56.5 98t-83 63.5t-100 23t-101.5 -23t-83 -63.5t-55 -98t-20.5 -125.5z" />
<glyph unicode="&#xf3;" horiz-adv-x="1185" d="M61 526q0 119 42 220.5t114 176t168 116.5t207 42t207 -42t168.5 -116.5t114.5 -176t42 -220.5t-42 -219t-114.5 -174t-169 -116t-206.5 -42q-111 0 -207 42t-168 116t-114 174t-42 219zM332 524q0 -68 20.5 -123t55 -95t83 -61.5t101.5 -21.5t100 21.5t83 61.5 t56.5 95.5t20.5 122.5q0 68 -20.5 125.5t-56.5 98t-83 63.5t-100 23t-101.5 -23t-83 -63.5t-55 -98t-20.5 -125.5zM502 1192l190 289h303l-295 -289h-198z" />
<glyph unicode="&#xf4;" horiz-adv-x="1185" d="M61 526q0 119 42 220.5t114 176t168 116.5t207 42t207 -42t168.5 -116.5t114.5 -176t42 -220.5t-42 -219t-114.5 -174t-169 -116t-206.5 -42q-111 0 -207 42t-168 116t-114 174t-42 219zM252 1192l227 291h242l227 -291h-221l-127 170l-125 -170h-223zM332 524 q0 -68 20.5 -123t55 -95t83 -61.5t101.5 -21.5t100 21.5t83 61.5t56.5 95.5t20.5 122.5q0 68 -20.5 125.5t-56.5 98t-83 63.5t-100 23t-101.5 -23t-83 -63.5t-55 -98t-20.5 -125.5z" />
<glyph unicode="&#xf5;" horiz-adv-x="1185" d="M61 526q0 119 42 220.5t114 176t168 116.5t207 42t207 -42t168.5 -116.5t114.5 -176t42 -220.5t-42 -219t-114.5 -174t-169 -116t-206.5 -42q-111 0 -207 42t-168 116t-114 174t-42 219zM231 1206q6 45 23.5 89t45.5 79t67 55.5t90 20.5q45 0 84 -12.5t72.5 -26.5 t64.5 -26.5t59 -12.5q35 0 55.5 19.5t32.5 66.5h127q-6 -47 -22.5 -91t-43 -78t-63.5 -54.5t-86 -20.5q-45 0 -84 12.5t-73.5 26t-66.5 25.5t-62 12q-72 0 -93 -84h-127zM332 524q0 -68 20.5 -123t55 -95t83 -61.5t101.5 -21.5t100 21.5t83 61.5t56.5 95.5t20.5 122.5 q0 68 -20.5 125.5t-56.5 98t-83 63.5t-100 23t-101.5 -23t-83 -63.5t-55 -98t-20.5 -125.5z" />
<glyph unicode="&#xf6;" horiz-adv-x="1185" d="M61 526q0 119 42 220.5t114 176t168 116.5t207 42t207 -42t168.5 -116.5t114.5 -176t42 -220.5t-42 -219t-114.5 -174t-169 -116t-206.5 -42q-111 0 -207 42t-168 116t-114 174t-42 219zM276 1212v228h250v-228h-250zM332 524q0 -68 20.5 -123t55 -95t83 -61.5 t101.5 -21.5t100 21.5t83 61.5t56.5 95.5t20.5 122.5q0 68 -20.5 125.5t-56.5 98t-83 63.5t-100 23t-101.5 -23t-83 -63.5t-55 -98t-20.5 -125.5zM662 1212v228h249v-228h-249z" />
<glyph unicode="&#xf7;" horiz-adv-x="458" d="M94 578v268h271v-268h-271z" />
<glyph unicode="&#xf8;" horiz-adv-x="1185" d="M61 524q0 115 42 216.5t114 177t169 119.5t208 44q92 0 175 -31.5t151 -86.5l94 94l104 -101l-98 -100q49 -70 76.5 -154t27.5 -178q0 -115 -42 -214t-113.5 -175t-167.5 -119t-207 -43q-94 0 -178 32t-152 87l-94 -94l-102 102l96 99q-47 70 -75 151.5t-28 173.5z M328 524q0 -70 28 -131l379 383q-31 23 -66.5 35t-74.5 12q-55 0 -103.5 -23.5t-85 -63.5t-57 -95.5t-20.5 -116.5zM449 279q31 -23 67.5 -35.5t77.5 -12.5q55 0 103 24t84 63.5t56.5 93t20.5 112.5q0 76 -31 138z" />
<glyph unicode="&#xf9;" horiz-adv-x="1173" d="M115 446v609h270v-617q0 -23 6 -56.5t26.5 -66t59.5 -55t107 -22.5q90 0 147 56t57 144v617h271v-609q0 -100 -34 -186t-96.5 -149.5t-150.5 -99.5t-194 -36q-111 0 -198 35t-147.5 97.5t-92 148.5t-31.5 190zM213 1481h301l191 -289h-199z" />
<glyph unicode="&#xfa;" horiz-adv-x="1173" d="M115 446v609h270v-617q0 -23 6 -56.5t26.5 -66t59.5 -55t107 -22.5q90 0 147 56t57 144v617h271v-609q0 -100 -34 -186t-96.5 -149.5t-150.5 -99.5t-194 -36q-111 0 -198 35t-147.5 97.5t-92 148.5t-31.5 190zM502 1192l190 289h303l-295 -289h-198z" />
<glyph unicode="&#xfb;" horiz-adv-x="1173" d="M115 446v609h270v-617q0 -23 6 -56.5t26.5 -66t59.5 -55t107 -22.5q90 0 147 56t57 144v617h271v-609q0 -100 -34 -186t-96.5 -149.5t-150.5 -99.5t-194 -36q-111 0 -198 35t-147.5 97.5t-92 148.5t-31.5 190zM238 1192l227 291h242l227 -291h-221l-127 170l-125 -170 h-223z" />
<glyph unicode="&#xfc;" horiz-adv-x="1173" d="M115 446v609h270v-617q0 -23 6 -56.5t26.5 -66t59.5 -55t107 -22.5q90 0 147 56t57 144v617h271v-609q0 -100 -34 -186t-96.5 -149.5t-150.5 -99.5t-194 -36q-111 0 -198 35t-147.5 97.5t-92 148.5t-31.5 190zM274 1212v228h250v-228h-250zM659 1212v228h250v-228h-250z " />
<glyph unicode="&#xfd;" horiz-adv-x="1173" d="M115 438v617h270v-617q0 -23 6 -56.5t26.5 -66t59.5 -55t107 -22.5q90 0 147 55t57 145v617h271v-1098q0 -104 -35 -191.5t-96.5 -149.5t-148.5 -97t-191 -35q-86 0 -164 26.5t-138.5 75.5t-101.5 117t-55 150h281q16 -51 62 -80t116 -29q55 0 93 18.5t62.5 47t34.5 65.5 t10 74v112q-102 -86 -243 -86q-96 0 -176 33t-136.5 94.5t-87 146.5t-30.5 189zM471 1233l191 295h294l-284 -295h-201z" />
<glyph unicode="&#xfe;" horiz-adv-x="1277" d="M133 -469v1890h273v-465q59 59 138 91t171 32q104 0 195 -42t159 -115.5t108 -174t40 -217.5t-40 -218t-108 -176t-159 -117t-195 -42q-92 0 -171 33t-138 92v-571h-273zM406 530q0 -61 21.5 -116.5t58 -96.5t86 -64.5t104.5 -23.5t104 22.5t86 63.5t58.5 95.5 t21.5 119.5q0 63 -21.5 117.5t-58.5 94.5t-86 62.5t-104 22.5t-104.5 -23.5t-86 -63.5t-58 -94.5t-21.5 -115.5z" />
<glyph unicode="&#xff;" horiz-adv-x="1171" d="M115 438v617h270v-617q0 -23 6 -57.5t26.5 -68t59.5 -57.5t105 -24q92 0 148 58.5t56 148.5v617h271v-1098q0 -106 -34 -193.5t-95.5 -150t-147.5 -96t-192 -33.5q-86 0 -164 26.5t-138.5 75.5t-101.5 117t-55 150h281q12 -59 60 -88t118 -29q55 0 93 17.5t61.5 47 t33.5 65.5t10 73v122q-47 -41 -108.5 -63.5t-132.5 -22.5q-96 0 -176 34t-136.5 94.5t-87 145.5t-30.5 189zM264 1212v228h250v-228h-250zM649 1212v228h250v-228h-250z" />
<glyph unicode="&#x152;" horiz-adv-x="2224" d="M68 717q0 154 52 289t144 235t220 157.5t280 57.5q154 0 277.5 -58.5t211.5 -162.5q53 88 147.5 137t233.5 49h502v-266h-502q-98 0 -137 -41t-39 -139v-131h565v-258h-565v-137q0 -98 39 -140.5t137 -42.5h510v-266h-510q-139 0 -235 51t-150 144q-88 -102 -209.5 -161 t-275.5 -59q-152 0 -280 57.5t-220 158t-144 235.5t-52 291zM338 717q0 -98 34 -187.5t91 -155t135 -104.5t166 -39t165 38t133 104.5t90 154.5t36 187q-2 100 -36 188t-90 153.5t-133 104.5t-165 39t-166 -38t-135 -104.5t-91 -154.5t-34 -186z" />
<glyph unicode="&#x153;" horiz-adv-x="1970" d="M61 524q0 115 42 216.5t114 177t168 119.5t207 44q123 0 222 -51t165 -141q74 90 177.5 141t223.5 51q94 0 181.5 -29.5t158 -86t118.5 -140.5t67 -190l-742 -309q39 -51 94.5 -78t120.5 -27q70 0 128.5 29t97.5 86h286q-25 -82 -74 -148.5t-114.5 -114.5t-147 -74 t-172.5 -26q-121 0 -225 51.5t-176 139.5q-68 -88 -167 -139.5t-222 -51.5q-111 0 -207 43t-168 119t-114 175t-42 214zM332 524q0 -59 20.5 -111.5t55 -91t83 -61t101.5 -22.5q55 0 102 22.5t83 61t56.5 91t20.5 111.5q0 61 -20.5 114.5t-56.5 93.5t-83 63.5t-102 23.5 q-53 0 -101.5 -23.5t-83 -63.5t-55 -93.5t-20.5 -114.5zM1102 553l481 201q-35 41 -90 61.5t-115 20.5q-109 0 -187.5 -77t-88.5 -206z" />
<glyph unicode="&#x178;" horiz-adv-x="1255" d="M113 1028v393h272v-399q0 -117 63.5 -180.5t180.5 -63.5q115 0 179 63.5t64 180.5v399h271v-393q0 -111 -37 -206t-107 -165q-98 -98 -235 -129v-528h-272v528q-137 31 -236 129q-70 70 -106.5 165t-36.5 206zM322 1563v227h251v-227h-251zM707 1563v227h251v-227h-251z " />
<glyph unicode="&#x2c6;" horiz-adv-x="854" d="M74 1192l227 291h242l227 -291h-221l-127 170l-125 -170h-223z" />
<glyph unicode="&#x2dc;" horiz-adv-x="854" d="M63 1206q6 45 23.5 89t45.5 79t67 55.5t90 20.5q45 0 84 -12.5t72.5 -26.5t64.5 -26.5t59 -12.5q35 0 55.5 19.5t32.5 66.5h127q-6 -47 -22.5 -91t-43 -78t-63.5 -54.5t-86 -20.5q-45 0 -84 12.5t-73.5 26t-66.5 25.5t-62 12q-72 0 -93 -84h-127z" />
<glyph unicode="&#x2000;" horiz-adv-x="978" />
<glyph unicode="&#x2001;" horiz-adv-x="1957" />
<glyph unicode="&#x2002;" horiz-adv-x="978" />
<glyph unicode="&#x2003;" horiz-adv-x="1957" />
<glyph unicode="&#x2004;" horiz-adv-x="651" />
<glyph unicode="&#x2005;" horiz-adv-x="489" />
<glyph unicode="&#x2006;" horiz-adv-x="325" />
<glyph unicode="&#x2007;" horiz-adv-x="325" />
<glyph unicode="&#x2008;" horiz-adv-x="243" />
<glyph unicode="&#x2009;" horiz-adv-x="391" />
<glyph unicode="&#x200a;" horiz-adv-x="108" />
<glyph unicode="&#x2010;" horiz-adv-x="677" d="M61 442v252h555v-252h-555z" />
<glyph unicode="&#x2011;" horiz-adv-x="677" d="M61 442v252h555v-252h-555z" />
<glyph unicode="&#x2012;" horiz-adv-x="677" d="M61 442v252h555v-252h-555z" />
<glyph unicode="&#x2013;" horiz-adv-x="1241" d="M63 442v252h1115v-252h-1115z" />
<glyph unicode="&#x2014;" horiz-adv-x="1947" d="M63 442v252h1821v-252h-1821z" />
<glyph unicode="&#x2018;" horiz-adv-x="415" d="M70 862v277q0 131 69.5 201.5t179.5 82.5v-114q-59 -14 -88.5 -56.5t-29.5 -107.5v-25h145v-258h-276z" />
<glyph unicode="&#x2019;" horiz-adv-x="415" d="M70 1163v258h276v-276q0 -129 -69.5 -201t-180.5 -82v115q59 12 89 55t30 109v22h-145z" />
<glyph unicode="&#x201a;" horiz-adv-x="409" d="M70 0v268h270v-299q0 -133 -69.5 -194.5t-176.5 -57.5v99q59 4 90 43t31 104v37h-145z" />
<glyph unicode="&#x201c;" horiz-adv-x="872" d="M70 862v277q0 131 69.5 201.5t179.5 82.5v-114q-59 -14 -88.5 -56.5t-29.5 -107.5v-25h145v-258h-276zM526 862v277q0 131 70 201.5t180 82.5v-114q-59 -14 -89 -56.5t-30 -107.5v-25h146v-258h-277z" />
<glyph unicode="&#x201d;" horiz-adv-x="872" d="M70 1163v258h276v-276q0 -129 -69.5 -201t-180.5 -82v115q59 12 89 55t30 109v22h-145zM526 1163v258h277v-276q0 -129 -69.5 -201t-180.5 -82v115q59 12 89 55t30 109v22h-146z" />
<glyph unicode="&#x201e;" horiz-adv-x="866" d="M70 0v268h270v-299q0 -133 -69.5 -194.5t-176.5 -57.5v99q61 4 92 43t31 104v37h-147zM526 0v268h271v-299q0 -133 -70 -194.5t-176 -57.5v99q59 4 90 43t31 104v37h-146z" />
<glyph unicode="&#x2022;" horiz-adv-x="641" d="M102 748q0 45 17.5 83.5t46.5 68.5t68.5 47.5t87.5 17.5q45 0 83.5 -17.5t68.5 -47.5t47.5 -68.5t17.5 -83.5q0 -47 -17.5 -87t-47.5 -69t-68.5 -46.5t-83.5 -17.5q-47 0 -87 17.5t-69 46.5t-46.5 69t-17.5 87z" />
<glyph unicode="&#x2026;" horiz-adv-x="1769" d="M94 0v289h291v-289h-291zM739 0v289h291v-289h-291zM1384 0v289h291v-289h-291z" />
<glyph unicode="&#x202f;" horiz-adv-x="391" />
<glyph unicode="&#x2039;" horiz-adv-x="430" d="M47 512v203l324 278v-215l-205 -164l205 -168v-215z" />
<glyph unicode="&#x203a;" horiz-adv-x="430" d="M59 231v215l205 168l-205 164v215l326 -278v-203z" />
<glyph unicode="&#x205f;" horiz-adv-x="489" />
<glyph unicode="&#x2122;" horiz-adv-x="1884" d="M72 1231v190h649v-190h-223v-703h-203v703h-223zM825 528v893h260l218 -649l219 649h260v-893h-195v541l-178 -541h-213l-176 539v-539h-195z" />
<glyph unicode="&#xe000;" horiz-adv-x="1055" d="M0 1055h1055v-1055h-1055v1055z" />
<glyph unicode="&#xfb01;" horiz-adv-x="1130" d="M115 0v1040q0 104 30.5 193.5t91 151t148.5 91t203 17.5v-242q-100 6 -150.5 -41t-52.5 -157h616v-1053h-270v793h-346v-793h-270zM729 1169v152q0 57 40 96t97 39q55 0 95 -39t40 -96v-152h-272z" />
<glyph unicode="&#xfb02;" horiz-adv-x="1230" d="M115 0v1040q0 104 30.5 193.5t91 151t148.5 91t203 17.5v-242q-100 6 -150.5 -41t-52.5 -157h190v-260h-190v-793h-270zM737 442v1082h273v-1082q0 -113 50 -156.5t150 -37.5v-246q-117 -12 -204.5 14.5t-147 85t-90.5 145t-31 195.5z" />
<glyph unicode="&#xfb03;" horiz-adv-x="1808" d="M1407 1169v152q0 57 40 96t97 39q55 0 95 -39t40 -96v-152h-272zM1409 0v1055h270v-1055h-270zM754 -2v1040q0 104 30.5 193.5t91 152t147.5 92.5q62 21 137 21q31 0 65 -4v-254q-16 1 -30 1q-76 0 -119 -36q-50 -43 -52 -153h190v-240h-190v-813h-270zM115 -2v1040 q0 104 30.5 193.5t91 152t147.5 92.5q62 21 137 21q31 0 65 -4v-254q-16 1 -30 1q-76 0 -119 -36q-50 -43 -52 -153h190v-240h-190v-813h-270z" />
<glyph unicode="&#xfb04;" horiz-adv-x="1878" d="M1384 442v1082h273v-1082q0 -113 50 -156q44 -39 127 -39q12 0 24 1v-246q-37 -4 -71 -4q-74 0 -134 18q-88 27 -147.5 85.5t-90.5 145t-31 195.5zM754 -2v1040q0 104 30.5 193.5t91 152t147.5 92.5q62 21 137 21q31 0 65 -4v-254q-16 1 -30 1q-76 0 -119 -36 q-50 -43 -52 -153h190v-240h-190v-813h-270zM115 -2v1040q0 104 30.5 193.5t91 152t147.5 92.5q62 21 137 21q31 0 65 -4v-254q-16 1 -30 1q-76 0 -119 -36q-50 -43 -52 -153h190v-240h-190v-813h-270z" />
</font>
</defs>
</svg>
